<?xml version="1.0" encoding="UTF-8" standalone="no"?>
<svg
   xmlns:dc="http://purl.org/dc/elements/1.1/"
   xmlns:cc="http://creativecommons.org/ns#"
   xmlns:rdf="http://www.w3.org/1999/02/22-rdf-syntax-ns#"
   xmlns:svg="http://www.w3.org/2000/svg"
   xmlns="http://www.w3.org/2000/svg"
   xmlns:sodipodi="http://sodipodi.sourceforge.net/DTD/sodipodi-0.dtd"
   xmlns:inkscape="http://www.inkscape.org/namespaces/inkscape"
   version="1.0"
   width="300.000000pt"
   height="300.000000pt"
   viewBox="0 0 300.000000 300.000000"
   preserveAspectRatio="xMidYMid meet"
   id="svg6923"
   inkscape:version="0.48.5 r10040"
   sodipodi:docname="learnmode.svg">
  <defs
     id="defs7039" />
  <sodipodi:namedview
     pagecolor="#ffffff"
     bordercolor="#666666"
     borderopacity="1"
     objecttolerance="10"
     gridtolerance="10"
     guidetolerance="10"
     inkscape:pageopacity="0"
     inkscape:pageshadow="2"
     inkscape:window-width="1920"
     inkscape:window-height="1027"
     id="namedview7037"
     showgrid="false"
     inkscape:zoom="1.7800235"
     inkscape:cx="174.18908"
     inkscape:cy="242.15695"
     inkscape:window-x="-8"
     inkscape:window-y="-8"
     inkscape:window-maximized="1"
     inkscape:current-layer="svg6923" />
  <metadata
     id="metadata6925">
Created by potrace 1.10, written by Peter Selinger 2001-2011
<rdf:RDF>
  <cc:Work
     rdf:about="">
    <dc:format>image/svg+xml</dc:format>
    <dc:type
       rdf:resource="http://purl.org/dc/dcmitype/StillImage" />
    <dc:title></dc:title>
  </cc:Work>
</rdf:RDF>
</metadata>
  <g
     transform="translate(0.000000,300.000000) scale(0.100000,-0.100000)"
     fill="#000000"
     stroke="none"
     id="g6927">
    <path
       d="M 869,2746 C 699.39541,2725.2418 524.45546,2729.1984 359,2684 256.34368,2618.704 248.42425,2479.271 215.70508,2372.541 178.1785,2206.6994 150.67167,2025.1951 218.125,1863.25 222.9876,1728.3712 435.52295,1686.3423 416,1568 c -17.44587,-99.1254 -132.54839,-230.496 -31.625,-312.5 -60.37355,104.3461 37.50868,222.2789 52.875,330.25 0.40023,106.9693 -175.74592,146.0991 -202.31812,261.1943 -92.0717,235.3056 -22.48187,493.3536 56.68482,721.5452 37.16199,141.3577 202.98759,116.4893 315.73468,134.1522 154.22441,7.0552 311.92109,26.1433 464.71112,-1.5792 134.481,-37.2762 258.1707,-102.6445 363.6803,-193.9006 448.0276,-345.1996 897.6768,-688.8829 1332.5348,-1050.6043 74.7376,-49.0102 181.2399,-203.6915 60.779,-256.9722 C 2702.086,1155.5335 2565.967,1148.5308 2437,1113 c 100.2526,3.3124 205.0881,44.4235 302,33 -160.0134,-37.5146 -324.3482,-68.9213 -488.8474,-75.0146 -169.6697,21.1439 -347.2541,70.7813 -477.9026,185.7646 185.7267,-111.9487 407.909,-193.8176 626.9844,-155.3906 -151.6554,3.1435 -308.502,18.4823 -447.8906,86.0625 -182.8702,86.6857 -326.5055,235.0951 -487.751,354.3262 -308.4957,245.9322 -609.92099,500.6475 -916.4678,748.8769 -41.65696,22.3077 70.17386,-85.5488 0.875,-21.625 -67.59282,97.6079 -180.1185,166.9967 -247.625,259.125 20.99492,-118.6363 148.36009,-176.1885 226.06402,-257.1995 365.00333,-305.563 728.47278,-613.2955 1100.60198,-910.1118 58.0613,-7.3871 147.466,-86.8285 107.834,-84.1887 -99.8265,123.1859 142.7757,-156.7805 83.8938,-74.7427 201.2968,-146.6098 466.3881,-175.0349 703.9516,-115.4035 108.6641,-0.5741 260.662,92.5757 322.2796,86.1462 -98.564,-182.69575 -191.0885,-384.64431 -364.9795,-508.42822 -60.2459,-19.57242 -97.8661,-81.13066 -10.5508,-28.344 C 2675.9531,766.49497 2774.6455,1001.5763 2881,1211 c 63.2503,116.6306 -49.4411,217.0625 -128.6257,287.7275 C 2300.6165,1858.0984 1849.03,2217.906 1393.707,2572.8164 1240.4845,2679.1196 1055.0553,2740.0242 869,2746 z M 415,2390 c 93.64872,-98.9819 15.24294,3.2699 -28.75,28.25 L 399.6875,2405.5312 415,2390 z m 75,-65 c 58.36626,-75.5045 -81.97592,78.4228 0,0 z"
       id="path6929"
       inkscape:connector-curvature="0" />
    <path
       d="M745 2575 c-69 -25 -89 -67 -61 -130 13 -28 14 -27 9 28 -5 48 -3 57 10 57 9 0 20 6 24 13 13 20 59 36 90 31 15 -3 47 -6 71 -7 23 0 42 -4 42 -8 0 -4 11 -6 25 -3 14 2 33 0 43 -5 9 -5 31 -11 47 -14 60 -11 77 -16 91 -28 8 -6 14 -8 14 -4 0 4 6 3 13 -2 6 -6 35 -18 64 -27 60 -20 177 -92 169 -105 -3 -5 2 -8 12 -7 9 0 16 -5 14 -12 -1 -8 2 -11 8 -7 5 3 10 1 10 -5 0 -6 4 -9 9 -5 5 3 12 1 15 -4 3 -5 -1 -11 -9 -15 -8 -3 -15 -1 -15 5 0 22 -58 -22 -70 -53 -7 -18 -20 -49 -28 -68 -9 -19 -15 -38 -14 -42 2 -9 -47 -22 -55 -15 -3 3 14 56 37 117 41 105 42 111 26 129 -22 24 -121 65 -140 58 -21 -8 -49 -98 -35 -111 9 -8 10 -8 5 1 -6 11 18 83 28 83 2 0 22 -17 44 -39 24 -22 45 -35 52 -31 11 7 4 14 -65 63 -44 31 -21 30 43 -2 64 -32 84 -51 57 -51 -11 0 -15 -5 -12 -14 3 -7 0 -19 -6 -25 -6 -6 -7 -11 -2 -11 4 0 0 -8 -9 -19 -9 -10 -18 -28 -19 -40 -1 -11 -5 -21 -10 -21 -5 0 -6 -7 -3 -16 3 -8 2 -12 -4 -9 -6 3 -10 0 -10 -7 0 -22 -32 -61 -39 -49 -4 6 -25 13 -46 16 -61 9 -64 11 -59 41 l5 27 -20 -24 c-20 -24 -20 -24 -51 -6 -18 9 -38 17 -46 17 -9 0 -12 5 -8 12 4 6 3 8 -4 5 -13 -9 -112 40 -112 55 0 6 -3 9 -6 5 -3 -3 -18 -1 -33 4 l-26 9 25 -21 c14 -12 71 -44 127 -71 220 -106 468 -135 564 -68 64 46 23 148 -97 238 -201 151 -527 241 -679 187z m754 -291 c11 -15 18 -31 15 -36 -5 -7 -54 46 -54 59 0 12 22 -1 39 -23z m-29 -19 c19 -20 40 -33 47 -30 10 3 12 -3 7 -23 -4 -15 -10 -34 -15 -42 -7 -13 -8 -13 -9 0 0 11 -3 11 -11 -3 -8 -13 -18 -17 -35 -13 -13 4 -24 2 -24 -3 0 -9 -88 -26 -96 -18 -4 3 38 113 57 150 15 26 42 20 79 -18z"
       id="path6931" />
    <path
       d="M1400 2265 c0 -8 5 -15 11 -15 6 0 29 -14 51 -31 21 -17 42 -29 45 -25 4 3 4 7 2 9 -2 2 -25 20 -50 40 -51 41 -59 44 -59 22z"
       id="path6933" />
    <path
       d="M799 2553 c-23 -4 -32 -16 -58 -81 l-31 -76 39 -40 c37 -36 42 -39 66 -28 15 7 34 30 45 55 25 54 25 67 0 67 -18 0 -26 -16 -21 -43 1 -5 -4 -5 -10 -1 -8 4 -9 0 -4 -16 5 -17 4 -21 -6 -15 -9 6 -11 3 -6 -9 4 -9 3 -14 -2 -11 -5 3 -12 1 -16 -5 -3 -5 -11 -10 -17 -10 -6 0 -4 8 5 18 8 9 21 38 27 63 10 40 15 46 33 41 20 -4 19 -2 -8 28 -16 18 -23 31 -15 28 10 -4 15 2 16 18 1 13 -1 23 -5 23 -3 -1 -18 -4 -32 -6z m-26 -123 c-15 -35 -29 -58 -30 -53 -5 13 45 128 52 121 3 -3 -7 -34 -22 -68z m3 -57 c-10 -10 -19 5 -10 18 6 11 8 11 12 0 2 -7 1 -15 -2 -18z"
       id="path6935" />
    <path
       d="M860 2526 c0 -2 6 -16 14 -30 12 -24 14 -24 18 -8 3 12 -2 23 -13 31 -11 6 -19 9 -19 7z"
       id="path6937" />
    <path
       d="m 297,2430 c 30.00334,-25.8439 8.79684,-70.6526 56.26562,-74.7188 C 381.94029,2320.4241 445.143,2283.4625 487,2245 c 39.02318,-8.1058 11.70585,-72.0316 52.875,-40.25 42.22484,-14.5773 44.32849,-98.3418 78.5,-63.125 44.63713,-47.1987 99.14206,-82.1436 145.25,-128.5 55.60752,-19.499 55.77929,-71.0481 110.375,-89.125 46.0453,-32.2111 97.69837,-72.0966 137.9375,-119.7656 17.736,-23.4383 93.7963,-44.5513 103.5469,-91.3282 51.2167,-7.7245 66.2648,-57.4063 95.8125,-78.75 38.6172,-19.1093 85.9397,-50.4003 129.4316,-87.6425 48.7033,-43.6536 105.488,-79.0296 149.6309,-127.1543 7.3039,-34.1242 73.2537,-21.3533 52.2656,-68.2344 62.379,8.5714 102.8782,-65.1481 151.375,-96.125 23.5142,-15.3637 63.5592,-57.2117 80.6562,-46.3125 -238.0158,204.5313 -483.5686,400.3465 -725.0615,600.8174 C 808.04653,2008.7603 564.22883,2205.4367 328,2411 c -4.36947,2.4905 -34.76226,42.7328 -31,19 z"
       id="path6939"
       inkscape:connector-curvature="0" />
    <path
       d="M1144 2322 c4 -7 3 -12 -2 -12 -11 0 -37 -58 -29 -66 3 -3 8 5 12 18 4 13 14 30 22 40 11 12 11 18 2 24 -8 4 -10 3 -5 -4z"
       id="path6941" />
    <path
       d="M1711 1981 c-8 -5 -24 -8 -37 -6 -13 1 -24 -1 -24 -4 0 -4 -16 -5 -35 -3 -21 3 -42 -1 -52 -9 -12 -10 -15 -10 -9 -1 4 6 3 12 -3 12 -5 0 -12 -4 -15 -9 -3 -5 -15 -7 -26 -4 -11 3 -20 0 -20 -5 0 -13 33 -32 52 -31 7 0 4 4 -7 9 -13 6 -3 7 33 5 29 -2 50 0 47 5 -3 4 -15 6 -28 4 -21 -4 -21 -4 2 6 19 8 28 7 44 -7 11 -10 17 -13 14 -7 -5 8 7 11 38 9 25 -1 45 2 45 6 0 5 13 7 30 5 16 -2 27 0 25 4 -3 4 2 11 11 14 8 3 12 2 9 -3 -3 -5 0 -13 7 -18 9 -5 1 -10 -22 -14 l-35 -6 32 -2 c17 0 35 4 38 9 4 6 11 8 16 5 5 -4 9 -1 9 4 0 6 -10 11 -22 11 -17 0 -19 3 -10 9 11 7 10 10 -3 15 -31 11 -55 7 -56 -11 0 -12 -2 -13 -6 -5 -4 10 -8 10 -21 0 -13 -11 -15 -10 -9 5 7 20 7 20 -12 8z"
       id="path6945" />
    <path
       d="m 231,1915 c 6.5183,-56.735 34.17928,-109.1262 77.42188,-146.3867 113.33488,-101.6783 235.96287,-192.4309 356.07062,-285.8568 124.81817,-93.5616 248.4074,-189.4192 380.4645,-272.6803 34.5281,-3.8664 68.3179,-75.9582 94.918,-19.9512 -15.5453,-26.4672 -56.5187,-9.3526 -40.25,18.75 -42.8392,-14.8024 -46.4805,43.285 -66.25,58.5 0.1303,-36.6519 -51.72569,-1.8071 -37.07812,20.875 -38.51637,-6.0268 -62.69517,41.2783 -96.29688,56.75 -28.61697,22.1119 -57.97951,45.2757 -86,59 -11.72467,14.4709 -26.41704,8.1698 -36.65625,27.9375 -33.74956,3.0502 -11.16725,44.5691 -48.48437,34.1563 -31.34801,9.4659 -23.57922,41.0045 -29.85938,58.9062 -13.46782,10.138 1.69501,-31.8361 -26.53125,-18.1719 -25.9554,6.9281 -5.62834,44.0388 -40.23437,27.6407 -14.65963,9.7745 -19.51482,28.5533 -41.01563,32.2812 -8.69745,15.2722 41.33889,5.3611 16.65625,19.5 -18.94346,-8.662 -53.08055,-21.5076 -27.875,11.75 16.63173,16.4882 -39.27366,-27.3469 -24.89062,6.0469 -19.53166,13.5356 -44.78679,19.104 -52.28126,43.625 -25.03706,-4.5681 -28.01729,53.1671 -5.70312,14.8281 11.15914,20.9177 -19.35303,29.1101 -31.625,15.5 -29.98346,9.057 -24.11432,42.5642 -48.32812,49 5.04829,39.8604 -10.66117,6.4096 -27.04688,-2.375 8.84624,42.2097 -50.62062,8.7323 -56.25977,50.9785 -13.9862,17.5149 8.33445,43.7237 -25.97461,33.1153 -46.25676,1.0994 -28.43246,59.0084 -51.625,72.1406 10.27092,17.1215 -28.42712,24.8069 -9.51562,35.0625 30.02658,-11.2062 -31.22741,71.7678 -18.00781,14.1152 l 0.94433,-7.0579 L 231,1915 z m 84,-125 c -3.74875,-19.5801 -44.6893,22.0599 -6.875,7.25 l 3.95312,-3.1562 L 315,1790 z"
       id="path6947"
       inkscape:connector-curvature="0" />
    <path
       d="M1466 1952 c-3 -6 -15 -8 -26 -5 -11 3 -20 0 -20 -6 0 -6 7 -8 17 -4 11 4 14 3 9 -6 -10 -16 12 -41 35 -41 25 0 24 20 -1 27 -23 6 -26 19 -7 26 6 2 9 7 6 11 -4 4 -10 3 -13 -2z m21 -48 c-3 -3 -12 -4 -19 -1 -8 3 -5 6 6 6 11 1 17 -2 13 -5z"
       id="path6949" />
    <path
       d="m 455,1760 c -303.33333,-1173.33333 -151.66667,-586.6667 0,0 z"
       id="path6961"
       inkscape:connector-curvature="0"
       sodipodi:nodetypes="cc" />
    <path
       d="m 427,1456 c -8.99338,-66.3823 -85.54882,-154.0686 -8.79432,-204.1499 26.04229,-38.5643 27.36626,19.7182 38.60764,39.1441 30.42074,76.2626 48.70445,160.3893 89.53043,230.4902 48.26474,-41.6788 23.57275,-95.018 -10.17187,-143.8594 C 546.75593,1318.477 465.74721,1217.044 491,1207 c -34.15006,-29.6876 -12.59366,17.3365 -18,3 -17.97706,26.1514 -0.29947,64.1612 -23.54883,10.8496 -20.3622,-55.5372 55.99111,-79.8189 55.02149,-10.6055 C 538.52578,1300.2903 565.1447,1394.3568 609,1480 c 57.29143,-10.77 10.65596,-88.7236 15.5,-76.75 30.13237,-24.0847 24.6901,36.404 55.875,-10.625 59.10993,-53.6014 -27.3078,-141.9944 -33.98828,-209.4023 C 615.0571,1153.4999 637.81124,1076.8843 575,1127 c -57.88694,50.037 -33.00961,-86.694 -72.56787,-114.3364 -7.80659,-15.6865 -65.51872,-134.63195 -47.20294,-70.96705 4.5251,64.61885 80.65685,155.92355 58.31769,201.78785 -55.04322,2.3955 -29.31784,-8.413 -4.92188,-20.8594 C 488.84926,1053.3482 447.1969,984.46266 440,915 c 30.24619,2.06246 -65.28646,-92.44208 3.61328,-35.06641 C 493.32416,953.85004 524.79563,1037.913 563,1118 c 31.08629,-39.6183 80.1513,-57.3192 77.96875,15.0938 34.49944,78.2735 59.30898,161.2308 99.03125,236.9062 91.40291,-70.2581 173.64422,-152.0865 266,-221 21.4483,17.6718 97.1055,-78.3145 135.5566,-107.2129 C 1314.9566,885.47435 1487.5131,727.42471 1671,583 c 112.9672,-62.56057 247.9567,-78.15398 372.6495,-45.23511 112.5164,25.40929 227.1045,45.4177 336.5536,81.86011 29.3974,34.30643 -89.3231,-14.80371 -116.5242,-15.56268 -150.4177,-36.50679 -306.687,-80.56097 -462.0518,-51.38462 -79.447,28.19722 -165.248,61.49996 -220.1205,127.80692 -39.6523,40.60554 -97.967,87.76337 -149.2566,124.76538 -41.8937,66.05679 -118.6108,102.3516 -172.5312,159 -26.6688,47.5587 -90.407,56.8777 -70.7188,69.75 -28.4383,25.8882 -119.468,86.8027 -168.146,130.7007 C 932.15339,1237.415 835.37201,1302.4344 756,1385.125 675.39909,1395.8084 651.23777,1493.8857 571.35742,1520.7988 538.67643,1546.2377 506.57774,1572.4218 474,1598 c -15.66667,-47.3333 -31.33333,-94.6667 -47,-142 z m 85,52 c -9.31722,-60.6309 -45.15963,-110.6965 -54,-169 -12.4867,-36.8451 -26.81989,-88.6114 -61.5,-49.125 12.92671,76.692 39.98077,138.8545 66.40625,209.6719 -6.36535,54.1079 31.41552,78.8035 51.96875,21.4531 l 0.48438,-7.1562 L 512,1508 z m 158,-62 c -32.51426,-32.7785 -27.80476,14.698 0,0 z m 306,-258 c 28.8314,-31.5686 32.3737,-37.4585 -1.46974,-5.3868 -36.80038,29.0281 -52.71964,63.2107 1.46974,5.3868 z"
       id="path6971"
       inkscape:connector-curvature="0" />
    <path
       d="M1934 1494 c-32 -7 -56 -39 -51 -66 4 -21 4 -21 6 4 2 39 32 51 110 46 82 -6 171 -49 224 -107 39 -44 44 -59 26 -94 -11 -21 -10 -21 6 -5 27 25 13 77 -33 121 -68 66 -213 117 -288 101z"
       id="path6987" />
    <path
       d="M2010 1415 c14 -15 34 -32 45 -37 16 -9 16 -6 -5 17 -14 15 -34 32 -45 37 -16 9 -16 6 5 -17z"
       id="path6993" />
    <path
       d="M2050 1415 c0 -2 18 -16 41 -30 40 -26 47 -47 16 -53 -27 -5 -83 27 -97 56 -8 17 -14 22 -17 14 -12 -31 67 -82 127 -82 35 0 42 27 13 52 -21 18 -83 51 -83 43z"
       id="path6995" />
    <path
       d="M633 1373 c4 -3 -1 -12 -11 -20 -15 -13 -15 -13 6 -3 19 9 23 30 5 30 -4 0 -3 -3 0 -7z"
       id="path6997" />
    <path
       d="M2710 1351 c0 -12 81 -61 99 -61 21 0 7 34 -19 46 -39 18 -80 25 -80 15z"
       id="path6999" />
    <path
       d="M601 1297 c-14 -14 -14 -27 -1 -27 6 0 9 6 8 13 -2 6 5 11 15 9 20 -3 23 4 3 11 -7 3 -19 0 -25 -6z"
       id="path7003" />
    <path
       d="M588 1238 c-13 -15 -18 -18 -18 -8 -1 11 -5 10 -15 -4 -8 -11 -15 -24 -15 -30 0 -5 7 -1 15 10 11 14 14 15 15 4 0 -12 2 -12 9 -2 4 8 12 12 16 10 4 -1 10 7 11 20 5 27 3 27 -18 0z"
       id="path7005" />
    <path
       d="M1164 1162 c4 -7 2 -12 -4 -12 -6 0 4 -13 22 -30 35 -32 43 -35 53 -20 3 6 -1 7 -10 4 -11 -5 -14 -2 -8 12 5 14 3 16 -11 11 -13 -5 -17 -3 -13 7 4 11 1 13 -10 9 -10 -4 -14 -2 -9 5 3 6 1 14 -5 18 -8 4 -9 3 -5 -4z"
       id="path7007" />
    <path
       d="M2789 1153 c-14 -3 -46 -53 -34 -53 2 0 19 14 37 30 31 29 31 32 -3 23z"
       id="path7009" />
    <path
       d="M1036 1078 c-8 -31 -7 -38 2 -38 12 0 32 46 25 54 -12 11 -21 6 -27 -16z"
       id="path7011" />
    <path
       d="M1250 1091 c0 -5 5 -13 10 -16 6 -3 10 -2 10 4 0 5 -4 13 -10 16 -5 3 -10 2 -10 -4z"
       id="path7013" />
    <path
       d="M561 1067 c-20 -52 -32 -108 -25 -119 8 -12 -35 -98 -49 -98 -4 0 -5 -4 -2 -10 4 -6 -5 -10 -20 -10 -15 0 -24 -4 -20 -10 9 -14 51 -12 62 3 10 12 63 142 63 153 0 3 -5 2 -11 -2 -8 -4 -8 -1 -1 12 5 11 14 36 20 56 12 43 -3 63 -17 25z"
       id="path7015" />
    <path
       d="M1292 1072 c-9 -6 14 -29 74 -77 47 -38 94 -76 103 -85 30 -30 126 -105 113 -88 -7 9 -73 67 -147 129 -74 61 -132 116 -129 120 6 11 3 11 -14 1z"
       id="path7017" />
    <path
       d="M1066 1045 c-9 -14 -14 -31 -10 -37 4 -6 13 3 21 22 17 41 11 49 -11 15z"
       id="path7019" />
    <path
       d="M592 1023 l-11 -38 21 26 20 26 49 -18 c27 -11 58 -19 69 -19 23 0 25 -15 6 -50 -15 -25 -7 -56 18 -72 16 -11 56 -10 56 2 0 6 -5 10 -12 10 -9 0 -9 3 0 12 16 16 15 31 0 23 -7 -4 -5 0 5 8 23 19 23 60 0 55 -9 -2 -18 -10 -20 -18 -4 -13 -3 -13 6 0 9 13 11 13 11 -2 0 -10 -5 -18 -11 -18 -7 0 -9 -10 -5 -24 8 -31 -11 -44 -32 -22 -17 16 -16 20 12 86 4 11 1 16 -12 17 -10 1 -47 13 -82 27 -35 14 -66 26 -70 26 -4 0 -12 -17 -18 -37z"
       id="path7021" />
    <path
       d="M1008 1005 c-10 -23 -17 -25 -74 -25 l-62 0 -18 -45 c-21 -57 -12 -70 12 -16 l18 41 57 0 c48 0 61 4 73 21 9 14 19 18 28 13 10 -6 11 -5 1 8 -7 8 -10 18 -6 21 3 4 1 7 -6 7 -6 0 -17 -11 -23 -25z"
       id="path7023" />
    <path
       d="M1097 1006 c-20 -12 -34 -25 -31 -29 10 -9 74 25 74 40 0 7 -1 13 -2 12 -2 0 -20 -11 -41 -23z"
       id="path7025" />
    <path
       d="M1595 900 c3 -5 8 -10 11 -10 2 0 4 5 4 10 0 6 -5 10 -11 10 -5 0 -7 -4 -4 -10z"
       id="path7027" />
    <path
       d="M2369 821 c-54 -54 -65 -91 -25 -91 50 0 137 88 122 125 -11 29 -48 15 -97 -34z m55 -3 c-15 -28 -38 -48 -52 -48 -11 0 -7 9 13 30 29 30 52 41 39 18z"
       id="path7029" />
    <path
       d="M406 837 c3 -10 9 -15 12 -12 3 3 0 11 -7 18 -10 9 -11 8 -5 -6z"
       id="path7031" />
    <path
       d="M1709 660 c13 -11 29 -20 37 -20 8 0 14 -4 14 -8 0 -4 10 -8 23 -9 12 0 16 1 9 4 -6 3 -9 10 -6 15 4 7 2 8 -5 4 -6 -4 -17 -4 -24 1 -7 5 -25 15 -42 21 l-30 12 24 -20z"
       id="path7033" />
    <path
       d="M1800 646 c0 -2 7 -6 15 -10 8 -3 15 -1 15 4 0 6 -7 10 -15 10 -8 0 -15 -2 -15 -4z"
       id="path7035" />
  </g>
</svg>
