<?xml version="1.0" encoding="utf-8"?>
<!-- Generator: Adobe Illustrator 20.0.0, SVG Export Plug-In . SVG Version: 6.00 Build 0)  -->
<svg version="1.1" id="Layer_1" xmlns="http://www.w3.org/2000/svg" xmlns:xlink="http://www.w3.org/1999/xlink" x="0px" y="0px"
	 viewBox="0 0 111.63 224.28" style="enable-background:new 0 0 111.63 224.28;" xml:space="preserve">
<style type="text/css">
	.st0{fill:#1A1A18;}
</style>
<g>
	<path class="st0" d="M83.01,27.63c-7.04-7.04-16.76-11.39-27.5-11.39c-10.74,0-20.46,4.35-27.5,11.39
		c-7.04,7.04-11.39,16.76-11.39,27.5c0,10.74,4.35,20.46,11.39,27.5c7.04,7.04,16.76,11.39,27.5,11.39s20.46-4.35,27.5-11.39
		c7.04-7.04,11.39-16.76,11.39-27.5C94.4,44.39,90.05,34.67,83.01,27.63z M82.28,81.91C75.43,88.76,65.97,93,55.51,93
		c-10.46,0-19.92-4.24-26.77-11.09c-6.85-6.85-11.09-16.32-11.09-26.77c0-10.46,4.24-19.92,11.09-26.77
		c6.85-6.85,16.32-11.09,26.77-11.09c10.46,0,19.92,4.24,26.77,11.09c6.85,6.85,11.09,16.32,11.09,26.77
		C93.37,65.59,89.13,75.06,82.28,81.91z"/>
	<path class="st0" d="M80.52,30.12c-6.4-6.4-15.24-10.36-25.01-10.36c-9.77,0-18.61,3.96-25.01,10.36c-1.87,1.87-3.53,3.95-4.94,6.2
		V36.3l-0.46,0.77c-0.04,0.07-0.08,0.13-0.12,0.2l-0.09,0.16c-0.04,0.07-0.08,0.13-0.12,0.2l-0.1,0.18L24.56,38l-0.09,0.17
		c-0.04,0.08-0.08,0.15-0.12,0.23l-0.08,0.15l-0.12,0.22l-0.01,0.02l-0.06,0.11l-0.01,0.01c-0.04,0.08-0.08,0.16-0.12,0.24
		l-0.07,0.14c-0.04,0.08-0.08,0.15-0.11,0.23l-0.09,0.18c-0.04,0.07-0.07,0.15-0.11,0.22l-0.08,0.17l-0.1,0.22l0,0.01l-0.05,0.11
		l-0.01,0.02c-0.04,0.09-0.08,0.18-0.12,0.27l-0.05,0.11c-0.04,0.09-0.08,0.17-0.11,0.26l-0.07,0.16l-0.1,0.23l-0.07,0.18
		l-0.09,0.22l-0.05,0.11l-0.01,0.02c-0.04,0.09-0.08,0.19-0.11,0.28l-0.05,0.13c-0.03,0.08-0.06,0.16-0.09,0.25l-0.04,0.12
		l-0.01,0.04c-0.03,0.09-0.07,0.18-0.1,0.27l-0.01,0.03l-0.04,0.12v0l-0.08,0.23l-0.04,0.12l-0.01,0.05
		c-0.03,0.09-0.06,0.18-0.09,0.27l-0.01,0.03l-0.04,0.12l-0.01,0.02l-0.03,0.09l-0.04,0.11l-0.04,0.11l-0.04,0.11
		c-0.02,0.07-0.05,0.15-0.07,0.22l0,0.01l-0.04,0.12l-0.01,0.02c-0.03,0.1-0.06,0.2-0.09,0.3l-0.01,0.03l-0.03,0.12
		c-0.03,0.1-0.06,0.2-0.08,0.29l-0.03,0.09c-0.03,0.1-0.06,0.2-0.08,0.31l0,0.01l-0.03,0.12c-0.5,1.9-0.84,3.87-1.02,5.88
		l-0.01,0.05c-0.09,1.01-0.13,2.03-0.13,3.06c0,1.2,0.06,2.38,0.18,3.55l0,0l0.01,0.07v0l0.02,0.21l0.01,0.04
		c0.01,0.11,0.02,0.21,0.04,0.31l0.01,0.12l0,0.03c0.01,0.11,0.03,0.21,0.04,0.32l0,0.01l0.02,0.12l0,0.02
		c0.01,0.1,0.03,0.2,0.04,0.3l0.01,0.03l0.02,0.12v0.01l0.04,0.23l0.02,0.12l0.01,0.03c0.02,0.11,0.04,0.21,0.05,0.32l0.02,0.12
		c0.63,3.62,1.8,7.06,3.44,10.21l0.01,0.02c0.05,0.1,0.1,0.2,0.16,0.3l0.06,0.1l0.01,0.02c0.04,0.08,0.09,0.16,0.13,0.25l0.08,0.14
		l0.11,0.2l0.06,0.1l0.02,0.04c0.05,0.09,0.1,0.17,0.15,0.26l0.01,0.01l0.06,0.1L24.97,73c0.04,0.07,0.09,0.14,0.13,0.21l0.45,0.76
		v-0.02c1.41,2.25,3.08,4.33,4.94,6.2c6.4,6.4,15.24,10.36,25.01,10.36c9.77,0,18.61-3.96,25.01-10.36
		c6.4-6.4,10.36-15.24,10.36-25.01C90.88,45.37,86.92,36.53,80.52,30.12z M85.96,38.19c1.08,1.94,1.99,4,2.68,6.15
		c0.75,2.31,1.27,4.73,1.52,7.22h-4.21V38.19z M25.04,38.2v13.37h-4.2C21.33,46.75,22.79,42.23,25.04,38.2z M25.04,72.07
		c-2.17-3.89-3.61-8.25-4.15-12.88h4.15V72.07z M88.57,66.16c-0.69,2.06-1.56,4.04-2.61,5.92V59.19h4.15
		C89.84,61.6,89.31,63.93,88.57,66.16z M85.71,58.68h-0.26v0.26v14.05c-1.48,2.48-3.26,4.76-5.29,6.79
		c-6.31,6.31-15.02,10.21-24.65,10.21c-9.62,0-18.34-3.9-24.65-10.21c-2.04-2.04-3.82-4.33-5.31-6.82V58.94v-0.26H25.3h-4.46
		c-0.12-1.17-0.18-2.35-0.18-3.55c0-1.03,0.05-2.05,0.13-3.06h4.51h0.26v-0.26V37.3c1.49-2.49,3.27-4.78,5.31-6.82
		c6.31-6.31,15.02-10.21,24.65-10.21c9.63,0,18.34,3.9,24.65,10.21c2.03,2.03,3.81,4.31,5.29,6.79v14.54v0.26h0.26l4.53,0
		c0.09,1.01,0.13,2.03,0.13,3.06c0,1.2-0.06,2.38-0.18,3.55H85.71z"/>
	<circle class="st0" cx="37.65" cy="55.13" r="5.04"/>
	<circle class="st0" cx="73.37" cy="55.13" r="5.04"/>
	<path class="st0" d="M55.61,112.44L55.61,112.44c-0.37,0.01-0.74,0.09-1.07,0.27c-0.15,0.08-0.29,0.18-0.41,0.31v-0.32v-0.17h-0.17
		h-0.45h-0.17v0.17v4.64v0.17h0.17h0.46h0.17v-0.17v-2.58c0-0.44,0.15-0.82,0.41-1.09c0.26-0.27,0.62-0.43,1.04-0.43h0.02v0
		c0.45,0,0.81,0.12,1.06,0.36c0.25,0.24,0.39,0.59,0.4,1.05v0.02h0v2.67v0.17h0.17h0.46h0.17v-0.17v-2.68
		c0-0.68-0.23-1.23-0.62-1.61C56.86,112.65,56.29,112.44,55.61,112.44z"/>
	<path class="st0" d="M39.35,112.73c-0.13,0.07-0.24,0.16-0.35,0.26l-0.01-0.3l0-0.17h-0.17h-0.43h-0.17v0.17v4.64v0.17h0.17h0.46
		h0.17v-0.17v-2.71c0-0.38,0.15-0.72,0.4-0.97c0.24-0.25,0.58-0.4,0.96-0.41v0c0.13,0,0.25,0.02,0.37,0.05
		c0.11,0.03,0.22,0.08,0.33,0.14l0.15,0.09l0.09-0.16l0.21-0.38l0.08-0.14l-0.14-0.09c-0.17-0.1-0.35-0.18-0.53-0.23
		c-0.18-0.05-0.37-0.07-0.56-0.07v0C40.03,112.48,39.66,112.55,39.35,112.73z"/>
	<path class="st0" d="M50.43,112.46c-0.11-0.01-0.21-0.02-0.32-0.02c-0.71,0-1.35,0.28-1.81,0.74c-0.45,0.46-0.72,1.09-0.72,1.83
		c0,0.77,0.27,1.39,0.7,1.83c0.46,0.47,1.11,0.73,1.83,0.73c0.41,0,0.84-0.09,1.22-0.26c0.36-0.16,0.68-0.39,0.91-0.7l0.1-0.13
		l-0.13-0.11l-0.33-0.26L51.75,116l-0.11,0.14c-0.15,0.19-0.37,0.35-0.62,0.45c-0.29,0.12-0.61,0.18-0.91,0.18
		c-0.45,0-0.88-0.15-1.19-0.44c-0.25-0.23-0.43-0.55-0.5-0.94h3.99h0.16l0.02-0.16c0.01-0.13,0.02-0.26,0.02-0.38
		c0-0.76-0.25-1.34-0.65-1.74C51.55,112.74,51.01,112.52,50.43,112.46z M50.11,113.22c0.52,0,0.96,0.15,1.25,0.43
		c0.25,0.24,0.41,0.58,0.45,1.01h-3.39c0.07-0.42,0.26-0.75,0.51-0.99C49.24,113.37,49.66,113.22,50.11,113.22z"/>
	<path class="st0" d="M33.17,118.34h-0.46h-0.17v0.17c0,0.62,0.25,1.12,0.66,1.47c0.43,0.36,1.03,0.56,1.71,0.56
		c0.68,0,1.3-0.18,1.73-0.54c0.4-0.34,0.65-0.83,0.65-1.48c0-0.44-0.12-0.81-0.36-1.12c-0.17-0.23-0.41-0.42-0.69-0.56
		c0.27-0.18,0.49-0.42,0.66-0.68c0.24-0.38,0.37-0.83,0.37-1.27c0-0.4-0.07-0.72-0.18-1c-0.09-0.22-0.21-0.41-0.34-0.58l0.35-0.41
		l0.11-0.13l-0.13-0.11l-0.3-0.26l-0.13-0.11l-0.11,0.13l-0.35,0.41c-0.17-0.1-0.35-0.19-0.55-0.25c-0.24-0.08-0.49-0.12-0.74-0.12
		c-0.67,0-1.28,0.24-1.71,0.69c-0.4,0.41-0.64,1.01-0.64,1.75c0,0.68,0.24,1.3,0.67,1.74c0.41,0.42,0.98,0.68,1.69,0.68
		c0.44,0,0.88,0.11,1.18,0.35c0.24,0.19,0.4,0.48,0.4,0.87c0,0.4-0.15,0.69-0.4,0.89c-0.3,0.24-0.73,0.34-1.19,0.34
		c-0.45,0-0.87-0.11-1.16-0.35c-0.25-0.2-0.4-0.49-0.4-0.88v-0.17H33.17z M34.91,113.24c0.45,0,0.86,0.15,1.14,0.45
		c0.26,0.27,0.42,0.67,0.42,1.19c0,0.44-0.18,0.84-0.47,1.14c-0.28,0.29-0.67,0.47-1.1,0.47c-0.46,0-0.84-0.17-1.1-0.45
		c-0.29-0.3-0.44-0.71-0.44-1.17c0-0.53,0.16-0.93,0.41-1.19C34.06,113.39,34.46,113.24,34.91,113.24z"/>
	<path class="st0" d="M46.95,115.41l0.02-0.16c0.01-0.13,0.02-0.26,0.02-0.38c0-0.76-0.25-1.34-0.65-1.74
		c-0.4-0.4-0.94-0.62-1.52-0.67c-0.11-0.01-0.22-0.02-0.32-0.02c-0.71,0-1.35,0.28-1.81,0.74c-0.45,0.46-0.72,1.09-0.72,1.83
		c0,0.77,0.27,1.39,0.71,1.83c0.46,0.47,1.11,0.73,1.83,0.73c0.41,0,0.84-0.09,1.22-0.26c0.36-0.16,0.68-0.39,0.92-0.7l0.1-0.13
		l-0.13-0.11l-0.33-0.26L46.14,116l-0.11,0.14c-0.15,0.19-0.37,0.35-0.62,0.45c-0.29,0.12-0.61,0.18-0.91,0.18
		c-0.45,0-0.88-0.15-1.19-0.44c-0.25-0.23-0.43-0.55-0.5-0.94h3.99H46.95z M44.5,113.22c0.52,0,0.96,0.15,1.25,0.43
		c0.25,0.24,0.41,0.58,0.45,1.01h-3.39c0.07-0.42,0.26-0.75,0.51-0.99C43.63,113.37,44.05,113.22,44.5,113.22z"/>
	<path class="st0" d="M75.93,115.22c0.74,0.14,1.47,0.31,2.17,0.56l0.17-0.49c-0.76-0.26-1.54-0.45-2.34-0.6v-1.33h2.52v-0.94h-3.58
		v2.12c-0.36-0.04-0.72-0.08-1.09-0.09l0.81-1.94h-0.93l-0.78,1.95c-0.26,0-0.52-0.01-0.78,0.01c-0.25,0.02-0.52,0.06-0.77,0.09
		l-0.79-2.05h-0.97l0.89,2.14c-0.36,0.06-0.74,0.14-1.11,0.22l-1.02-2.33l-0.05-0.12h-1l-1.43,3.49c-0.32,0.12-0.63,0.22-0.95,0.36
		l0.2,0.48c0.17-0.07,0.32-0.12,0.49-0.18l-0.43,1.03h1.14l0.57-1.51c0.57-0.19,1.13-0.36,1.68-0.5l0.16,0.42l0.65,1.59h1.19
		l-0.98-2.24c0.37-0.08,0.74-0.15,1.11-0.21l0.95,2.3l0.03,0.07h0.85l1.07-2.55c0.44,0.01,0.87,0.05,1.3,0.1v2.54h3.66v-0.94h-2.59
		V115.22z M67.08,115.47l0.68-1.83l0.57,1.46C67.92,115.21,67.5,115.33,67.08,115.47z M72.13,114.98c0.19-0.01,0.36,0,0.55-0.01
		l-0.43,1.08c-0.06,0.16-0.12,0.31-0.17,0.47c-0.05-0.15-0.11-0.3-0.17-0.47l-0.39-1C71.72,115.03,71.93,115,72.13,114.98z"/>
	<path class="st0" d="M60.29,117.51h0.87l1.03-3.22c0.06-0.17,0.1-0.3,0.14-0.4c0.03,0.09,0.07,0.2,0.12,0.33l1.01,3.21l0.02,0.08
		h0.82l1.47-5.01h-0.91l-0.82,3.16c-0.07,0.24-0.12,0.46-0.17,0.67c-0.17-0.55-0.32-1.02-0.44-1.45c-0.23-0.78-0.43-1.46-0.75-2.31
		l-0.03-0.07h-0.63l-1.17,3.31c-0.02,0.05-0.05,0.19-0.12,0.43l0,0.02c-0.04-0.18-0.08-0.36-0.13-0.54l-0.77-3.14l-0.02-0.08h-0.93
		l1.39,4.93L60.29,117.51z"/>
	<path class="st0" d="M60.43,119.71L60.43,119.71c-0.01-0.09-0.01-0.25-0.03-0.36h-0.3c0.01,0.15,0.02,0.36,0.02,0.47v1.66h0.31
		v-1.09c0-0.57,0.3-0.81,0.62-0.81c0.09,0,0.18,0.01,0.22,0.03l0.04-0.29c-0.07-0.02-0.13-0.02-0.21-0.02
		C60.81,119.3,60.55,119.46,60.43,119.71z"/>
	<path class="st0" d="M71.28,121.15L71.28,121.15l-0.73-1.8H70.2l0.91,2.13l-0.17,0.45c-0.09,0.24-0.2,0.38-0.41,0.38
		c-0.08,0-0.15-0.01-0.23-0.04l-0.03,0.28c0.09,0.02,0.18,0.03,0.28,0.03c0.37,0,0.54-0.21,0.67-0.54l1.06-2.68h-0.34L71.28,121.15z
		"/>
	<path class="st0" d="M69.45,118.75h-0.31v0.6H68.7v0.26h0.44v1.33c0,0.47,0.31,0.57,0.55,0.57c0.14,0,0.26-0.02,0.36-0.06
		l-0.01-0.27c-0.09,0.04-0.18,0.07-0.27,0.07c-0.19,0-0.32-0.07-0.32-0.39v-1.24h0.6v-0.26h-0.6V118.75z"/>
	<path class="st0" d="M68.11,118.31c-0.11,0-0.22,0.09-0.22,0.22c0,0.13,0.11,0.22,0.22,0.22s0.22-0.09,0.22-0.22
		C68.33,118.4,68.22,118.31,68.11,118.31z"/>
	<path class="st0" d="M62.68,119.3c-0.61,0-1.08,0.48-1.08,1.12c0,0.64,0.47,1.12,1.1,1.12c0.35,0,0.66-0.13,0.92-0.45l-0.23-0.18
		c-0.12,0.2-0.36,0.37-0.68,0.37c-0.44,0-0.77-0.35-0.78-0.78h1.77c0-0.05,0-0.1,0-0.15C63.7,119.77,63.35,119.3,62.68,119.3z
		 M61.94,120.25c0.02-0.36,0.33-0.7,0.75-0.7c0.44,0,0.69,0.3,0.71,0.7H61.94z"/>
	<rect x="66.81" y="118.04" class="st0" width="0.31" height="3.45"/>
	<rect x="67.96" y="119.35" class="st0" width="0.31" height="2.13"/>
	<path class="st0" d="M66.01,120.07c0-0.52-0.37-0.77-0.83-0.77c-0.36,0-0.66,0.13-0.84,0.31l0.17,0.21
		c0.15-0.15,0.38-0.25,0.63-0.25c0.37,0,0.57,0.18,0.57,0.55v0.07c-0.78,0-1.5,0.06-1.5,0.72c0,0.47,0.42,0.65,0.74,0.65
		c0.35,0,0.58-0.11,0.77-0.4h0.01c0,0.11,0.01,0.24,0.03,0.35h0.28c-0.02-0.12-0.04-0.31-0.04-0.48V120.07z M65.71,120.58
		c0,0.38-0.25,0.71-0.68,0.71c-0.24,0-0.5-0.1-0.5-0.41c0-0.4,0.59-0.46,1.09-0.46h0.09V120.58z"/>
	<path class="st0" d="M32.59,173.77c-8.33,0-15.11,6.78-15.11,15.11S24.26,204,32.59,204s15.11-6.78,15.11-15.11
		S40.93,173.77,32.59,173.77z M32.59,203.15c-7.86,0-14.26-6.4-14.26-14.26s6.4-14.26,14.26-14.26s14.26,6.4,14.26,14.26
		S40.46,203.15,32.59,203.15z"/>
	<path class="st0" d="M36.34,184.06l-0.81,1.17c0.13,0.11,0.26,0.22,0.38,0.34c0.85,0.85,1.38,2.02,1.38,3.32
		c0,1.3-0.53,2.47-1.37,3.32c-0.85,0.85-2.02,1.37-3.32,1.37c-1.3,0-2.47-0.53-3.32-1.38c-0.85-0.85-1.38-2.02-1.38-3.32
		c0-1.3,0.52-2.47,1.37-3.32l0,0c0.12-0.12,0.25-0.24,0.39-0.35l-0.84-1.14c-0.19,0.15-0.37,0.31-0.55,0.48l0,0l0,0
		c-1.11,1.11-1.79,2.64-1.79,4.32c0,1.69,0.68,3.22,1.79,4.32c1.11,1.11,2.63,1.79,4.32,1.79c1.69,0,3.21-0.68,4.32-1.79l0,0
		c1.11-1.11,1.79-2.63,1.79-4.32c0-1.69-0.68-3.22-1.79-4.32C36.73,184.38,36.54,184.21,36.34,184.06z"/>
	<rect x="31.98" y="181.26" class="st0" width="1.42" height="5.75"/>
	<path class="st0" d="M98.86,204.13c-4.92-2.21-7.36-2.65-8.45-1.49c-1.06,1.13-0.48,3.66,1.82,7.97l0.07,0.13
		c0.31,0.55,0.83,0.86,1.4,0.86c0.21,0,0.42-0.04,0.63-0.12l0.18-0.08c2.35-0.98,4.07-2.65,5.13-4.95l0.04-0.1
		C100.18,205.2,99.58,204.45,98.86,204.13z M98.88,206.1c-0.97,2.1-2.55,3.62-4.69,4.52l-0.16,0.07c-0.39,0.16-0.76,0.02-0.97-0.35
		l-0.07-0.13c-2.55-4.77-2.47-6.43-1.95-6.98c0.23-0.25,0.62-0.35,1.11-0.35c1.86,0,5.14,1.48,6.44,2.07
		C98.88,205.07,99.18,205.37,98.88,206.1z"/>
	<path class="st0" d="M111.53,198.44l-0.06-0.17c-0.17-0.28-0.39-0.46-0.64-0.6c0.12-1.08,0.19-2.17,0.19-3.28V29.63
		C111.02,13.29,97.72,0,81.38,0H29.63C13.29,0,0,13.29,0,29.63v164.75c0,16.34,13.29,29.63,29.63,29.63h51.75
		c1.26,0,2.5-0.09,3.72-0.24c0.05,0.06,0.1,0.13,0.17,0.18c0.3,0.25,1.04,0.32,1.76,0.32c0.84,0,1.65-0.1,1.75-0.13
		c0.52-0.18,0.78-0.75,0.93-1.33c0.29-0.08,0.58-0.17,0.86-0.27c0.27,0.52,0.62,1.01,1.24,1.19l0.09,0.03l0.09-0.02
		c1.39-0.23,1.62-0.28,2.92-0.78l0.15-0.1c0.62-0.63,0.52-1.5,0.44-2.27l-0.01-0.06c0.13-0.05,0.25-0.1,0.38-0.16l0.05,0.06
		c0.48,0.6,1.02,1.28,1.91,1.3l0.1,0l0.09-0.04c1.29-0.59,1.5-0.69,2.62-1.51l0.12-0.14c0.44-0.77,0.12-1.59-0.17-2.31l-0.02-0.06
		c0.11-0.08,0.21-0.16,0.32-0.25c0.02,0.02,0.04,0.03,0.07,0.05c0.62,0.46,1.32,0.98,2.18,0.76l0.17-0.08
		c1.07-0.88,1.23-1.02,2.14-2.13l0.08-0.16c0.22-0.86-0.3-1.57-0.76-2.19l-0.04-0.05c0.08-0.11,0.17-0.21,0.25-0.32l0.07,0.03
		c0.72,0.28,1.53,0.6,2.3,0.17l0.14-0.12c0.82-1.15,0.95-1.35,1.51-2.61l0.04-0.08l0-0.09c-0.01-0.89-0.69-1.44-1.3-1.92l-0.05-0.04
		c0.05-0.12,0.11-0.25,0.16-0.38l0.08,0.01c0.76,0.09,1.63,0.19,2.27-0.43l0.1-0.16c0.49-1.32,0.57-1.55,0.79-2.91l0.01-0.09
		l-0.03-0.09c-0.2-0.72-0.79-1.07-1.4-1.36c0.07-0.22,0.13-0.45,0.2-0.68c0.62-0.12,1.24-0.32,1.6-0.92l0.06-0.18
		C111.66,200.05,111.67,199.82,111.53,198.44z M29.63,221.75c-15.09,0-27.37-12.28-27.37-27.37V29.63
		c0-15.09,12.28-27.37,27.37-27.37h51.75c15.09,0,27.37,12.28,27.37,27.37v164.75c0,15.09-12.28,27.37-27.37,27.37H29.63z
		 M88.53,223.34c-0.18,0.04-0.69,0.07-1.22,0.08c0.47-0.1,0.94-0.2,1.41-0.32C88.66,223.23,88.6,223.32,88.53,223.34z M94.52,222.21
		c-1.15,0.44-1.36,0.48-2.55,0.68c-0.25-0.1-0.42-0.33-0.58-0.62c1.13-0.41,2.23-0.88,3.29-1.42
		C94.74,221.41,94.77,221.9,94.52,222.21z M100.05,219.57c-0.99,0.72-1.19,0.81-2.29,1.32c-0.44-0.06-0.78-0.48-1.17-0.97
		c-0.02-0.02-0.04-0.05-0.06-0.07c1.09-0.65,2.13-1.37,3.12-2.15l0.14,0.37C100.03,218.65,100.23,219.16,100.05,219.57z
		 M102.84,217.45c-0.45,0.06-0.88-0.26-1.38-0.63c-0.11-0.08-0.23-0.17-0.34-0.25l-0.06-0.04c0.96-0.86,1.87-1.78,2.71-2.75
		l0.3,0.42c0.38,0.51,0.7,0.95,0.64,1.39C103.94,216.53,103.77,216.68,102.84,217.45z M108.18,210.53c-0.5,1.12-0.62,1.3-1.32,2.28
		c-0.41,0.17-0.92-0.03-1.5-0.26c-0.13-0.05-0.26-0.1-0.39-0.15l-0.06-0.02c0.77-1.01,1.48-2.07,2.13-3.18l0.18,0.14
		C107.7,209.74,108.13,210.08,108.18,210.53z M110.22,204.74c-0.2,1.21-0.27,1.42-0.69,2.55c-0.35,0.27-0.89,0.21-1.52,0.14
		c-0.01,0-0.02,0-0.03,0c0.54-1.09,1.01-2.22,1.41-3.38C109.78,204.23,110.1,204.43,110.22,204.74z M110.69,201.27
		c-0.13,0.17-0.33,0.28-0.57,0.36c0.24-0.96,0.44-1.94,0.58-2.93C110.82,199.85,110.8,200.09,110.69,201.27z"/>
</g>
</svg>
