<?xml version="1.0" encoding="utf-8"?>
<!-- Generator: Adobe Illustrator 20.0.0, SVG Export Plug-In . SVG Version: 6.00 Build 0)  -->
<svg version="1.1" id="Layer_1" xmlns="http://www.w3.org/2000/svg" xmlns:xlink="http://www.w3.org/1999/xlink" x="0px" y="0px"
	 viewBox="0 0 119.33 215.4" style="enable-background:new 0 0 119.33 215.4;" xml:space="preserve">
<style type="text/css">
.fillpulse {
	animation: fillpulse 2s infinite;
}

@keyframes fillpulse {
	0%, 100% {
		fill: rgba(255,255,255,0);
	}
	50% {
		fill: #0078CC;
	}
}
</style>
<g>
	<path class="st0" d="M42.39,47.03c2.42,0.01,4.4,1.61,4.39,3.6c-0.01,2-2.02,3.64-4.47,3.63c-2.48-0.01-4.44-1.65-4.4-3.66
		C37.95,48.62,39.96,47.02,42.39,47.03"/>
</g>
<g>
	<path class="st0" d="M73.73,47.09c-2.45,0.01-4.36,1.6-4.29,3.6c0.08,2,2.13,3.66,4.61,3.65c2.49,0.01,4.41-1.62,4.3-3.62
		C78.24,48.72,76.17,47.1,73.73,47.09"/>
</g>
<g>
	<path d="M60.4,83.64c-0.01-0.6-0.24-1.04-0.62-1.39c-0.4-0.33-0.95-0.51-1.59-0.51c-0.36,0-0.71,0.07-1.02,0.2
		c-0.15,0.08-0.27,0.15-0.4,0.27c0-0.08,0-0.17,0-0.27c0-0.04,0-0.08,0-0.13c-0.05,0-0.11,0-0.16,0c-0.15,0-0.29,0-0.43,0
		c-0.06,0-0.12,0-0.17,0c0,0.06,0,0.11,0,0.13c0.02,1.33,0.04,2.63,0.05,3.94c0,0.06,0,0.12,0,0.15c0.05,0,0.11,0,0.17,0
		c0.15,0,0.3,0,0.44,0c0.05,0,0.11,0,0.16,0c0-0.04,0-0.1,0-0.15c-0.01-0.71-0.02-1.46-0.03-2.19c-0.01-0.38,0.14-0.69,0.39-0.92
		c0.24-0.23,0.58-0.36,0.98-0.36c0,0,0.01,0,0.02,0c0.43,0,0.78,0.1,1.03,0.32c0.25,0.17,0.39,0.48,0.4,0.89c0,0.02,0,0.02,0,0.02
		c0.01,0.75,0.03,1.52,0.04,2.27c0,0.06,0,0.12,0,0.15c0.05,0,0.11,0,0.17,0c0.14,0,0.29,0,0.43,0c0.05,0,0.11,0,0.17,0
		c0-0.04,0-0.1,0-0.15C60.43,85.15,60.41,84.39,60.4,83.64z"/>
	<path d="M53.24,81.72c-0.1,0-0.2-0.02-0.3-0.02c-0.67-0.01-1.27,0.24-1.71,0.62c-0.43,0.38-0.69,0.94-0.69,1.55
		c0,0.65,0.26,1.17,0.68,1.56c0.44,0.39,1.06,0.62,1.75,0.63c0.39,0,0.8-0.07,1.17-0.22c0.35-0.13,0.65-0.32,0.87-0.57
		c0.03-0.04,0.06-0.08,0.1-0.11c-0.04-0.02-0.09-0.06-0.13-0.1c-0.11-0.08-0.21-0.16-0.32-0.23c-0.05-0.02-0.1-0.06-0.14-0.1
		c-0.03,0.04-0.06,0.08-0.09,0.11c-0.15,0.17-0.36,0.3-0.6,0.4c-0.27,0.09-0.59,0.15-0.88,0.15c-0.43,0-0.84-0.14-1.14-0.39
		c-0.24-0.19-0.4-0.45-0.48-0.79c1.26,0.01,2.53,0.02,3.81,0.03c0.05,0,0.11,0,0.16,0c0-0.04,0-0.08,0.01-0.13
		c0.01-0.12,0.02-0.21,0.02-0.33c-0.01-0.63-0.26-1.14-0.64-1.48C54.32,81.98,53.8,81.78,53.24,81.72z M54.15,82.72
		c0.24,0.21,0.39,0.5,0.44,0.87c-1.09-0.01-2.17-0.02-3.25-0.02c0.07-0.35,0.25-0.63,0.49-0.84c0.28-0.25,0.68-0.38,1.11-0.38
		C53.45,82.35,53.86,82.49,54.15,82.72z"/>
	<path d="M44.19,81.73c-0.17-0.04-0.35-0.06-0.53-0.06c-0.34,0-0.68,0.05-0.99,0.2c-0.12,0.08-0.23,0.13-0.34,0.23
		c0-0.08,0-0.17,0-0.27c-0.01-0.04-0.01-0.08-0.01-0.13c-0.05,0-0.1,0-0.16,0c-0.14,0-0.27,0-0.41,0c-0.06,0-0.12,0-0.17,0
		c0,0.06,0,0.12,0,0.15c-0.01,1.32-0.03,2.63-0.04,3.93c0,0.06,0,0.12,0,0.15c0.05,0,0.11,0,0.17,0c0.15,0,0.3,0,0.44,0
		c0.05,0,0.11,0,0.16,0c0-0.04,0-0.1,0-0.15c0.01-0.75,0.01-1.52,0.02-2.28c0-0.33,0.15-0.63,0.39-0.82
		c0.24-0.21,0.56-0.34,0.93-0.34c0.12,0,0.24,0,0.36,0.04c0.11,0.02,0.21,0.06,0.3,0.12c0.04,0.04,0.09,0.06,0.15,0.08
		c0.02-0.04,0.05-0.08,0.08-0.13c0.06-0.1,0.13-0.21,0.2-0.32c0.02-0.04,0.04-0.08,0.07-0.11c-0.05-0.02-0.09-0.04-0.14-0.08
		C44.54,81.84,44.37,81.77,44.19,81.73z"/>
	<path d="M47.9,81.68c-0.11,0-0.21-0.02-0.3-0.02c-0.68-0.01-1.29,0.24-1.74,0.64c-0.42,0.36-0.68,0.92-0.69,1.53
		c0,0.65,0.25,1.19,0.67,1.56c0.44,0.41,1.06,0.64,1.76,0.65c0.39,0,0.8-0.07,1.17-0.22c0.34-0.13,0.66-0.34,0.88-0.59
		c0.03-0.04,0.06-0.08,0.1-0.11c-0.04-0.02-0.08-0.06-0.13-0.1c-0.11-0.08-0.21-0.16-0.32-0.23c-0.04-0.02-0.08-0.04-0.13-0.08
		c-0.04,0.04-0.07,0.08-0.11,0.1c-0.14,0.17-0.36,0.3-0.6,0.4c-0.27,0.09-0.58,0.15-0.87,0.15c-0.44,0-0.85-0.14-1.14-0.39
		c-0.24-0.17-0.42-0.44-0.48-0.79c1.27,0.01,2.54,0.02,3.82,0.03c0.04,0,0.1,0,0.15,0c0-0.04,0-0.08,0.01-0.13
		c0.02-0.12,0.02-0.21,0.02-0.33c0-0.63-0.24-1.13-0.63-1.46C48.97,81.94,48.46,81.74,47.9,81.68z M45.97,83.54
		c0.06-0.36,0.24-0.65,0.49-0.86c0.3-0.23,0.7-0.36,1.14-0.36c0.49,0,0.91,0.12,1.19,0.35c0.24,0.21,0.4,0.5,0.43,0.89
		C48.13,83.56,47.05,83.55,45.97,83.54z"/>
	<path d="M40.31,84.77c0.23-0.34,0.36-0.71,0.36-1.07c0-0.35-0.06-0.63-0.15-0.85c-0.08-0.21-0.2-0.37-0.32-0.5
		c0.11-0.11,0.22-0.23,0.34-0.36c0.03-0.04,0.06-0.08,0.11-0.11c-0.04-0.02-0.08-0.06-0.12-0.1c-0.09-0.08-0.19-0.14-0.28-0.21
		c-0.04-0.02-0.08-0.06-0.13-0.1c-0.04,0.04-0.07,0.08-0.11,0.11c-0.12,0.13-0.23,0.23-0.34,0.34c-0.16-0.1-0.33-0.16-0.52-0.21
		c-0.22-0.06-0.46-0.1-0.7-0.1c-0.64,0-1.21,0.2-1.63,0.56c-0.39,0.34-0.63,0.86-0.64,1.49c-0.01,0.58,0.2,1.1,0.61,1.48
		c0.37,0.37,0.92,0.56,1.6,0.57c0.42,0,0.85,0.1,1.14,0.32c0.23,0.16,0.38,0.41,0.37,0.73c0,0.35-0.16,0.59-0.39,0.76
		c-0.29,0.19-0.7,0.28-1.15,0.28c-0.44,0-0.84-0.1-1.12-0.32c-0.23-0.17-0.37-0.42-0.37-0.73c0-0.04,0-0.1,0-0.15
		c-0.05,0-0.11,0-0.16,0c-0.15,0-0.3,0-0.45,0c-0.05,0-0.11,0-0.16,0c0,0.06,0,0.12,0,0.15c-0.01,0.52,0.23,0.94,0.6,1.25
		c0.41,0.31,0.99,0.49,1.64,0.49c0.66,0.01,1.26-0.14,1.68-0.47c0.39-0.28,0.64-0.71,0.64-1.26c0-0.36-0.12-0.69-0.34-0.96
		c-0.16-0.19-0.38-0.35-0.65-0.47C39.93,85.19,40.14,85,40.31,84.77z M38.44,82.28c0.43,0,0.82,0.14,1.09,0.39
		c0.25,0.25,0.4,0.56,0.4,1.02c0,0.36-0.19,0.69-0.47,0.96c-0.28,0.25-0.65,0.4-1.06,0.39c-0.44,0-0.8-0.16-1.05-0.39
		c-0.26-0.25-0.4-0.6-0.39-0.98c0.01-0.46,0.16-0.79,0.4-1.01C37.63,82.41,38.01,82.28,38.44,82.28z"/>
	<path d="M80.33,86.16c0-0.02,0-0.03,0-0.07c-0.01-0.15-0.02-0.31-0.03-0.48l-0.01-0.18l-2.51-0.02l-0.06-1.2
		c0.72,0.12,1.43,0.28,2.11,0.5c0.05-0.13,0.09-0.27,0.15-0.42c-0.74-0.23-1.5-0.39-2.28-0.52l-0.05-1.1c0.73,0,1.48,0.01,2.22,0.02
		h0.2l-0.01-0.19c-0.01-0.15-0.02-0.31-0.03-0.51l-0.01-0.15l-3.44-0.03l0.09,1.82c-0.34-0.03-0.68-0.07-1.03-0.08
		c0.22-0.51,0.43-1.01,0.65-1.52l0.06-0.15l-0.9-0.01l-0.03,0.07c-0.22,0.54-0.43,1.07-0.65,1.6c-0.25,0-0.49-0.01-0.75,0
		c-0.24,0.01-0.49,0.05-0.73,0.07c-0.27-0.56-0.53-1.12-0.8-1.68l-0.03-0.06l-0.96-0.01l0.08,0.16c0.29,0.55,0.57,1.11,0.85,1.67
		c-0.34,0.04-0.69,0.12-1.04,0.18c-0.35-0.66-0.7-1.32-1.05-2l-0.02-0.1l-0.99-0.01l-0.03,0.06c-0.01,0.02-0.02,0.05-0.03,0.08
		c-0.26,0.59-0.52,1.19-0.77,1.78c-0.15,0.35-0.3,0.7-0.45,1.04c-0.3,0.1-0.6,0.19-0.91,0.3c0.07,0.14,0.14,0.27,0.2,0.41
		c0.16-0.06,0.31-0.1,0.46-0.15c-0.09,0.21-0.19,0.43-0.28,0.64l-0.13,0.25l0.99,0.01l0.16,0.01v-0.11l-0.1-0.03l0,0h0.11
		c0.15-0.39,0.3-0.78,0.46-1.17c0.54-0.16,1.07-0.29,1.59-0.41c0.06,0.13,0.12,0.25,0.19,0.38l0.04,0.06
		c0.18,0.36,0.35,0.71,0.53,1.06l0.05,0.1c0,0.02,0.01,0.05,0.03,0.09l0.05,0.05l0.79,0.01l0.47,0.01l-0.22-0.19
		c0-0.01-0.01-0.03-0.03-0.07c-0.29-0.54-0.59-1.11-0.89-1.68c0.35-0.06,0.7-0.13,1.04-0.17c0.34,0.66,0.67,1.32,1.01,1.98
		l0.03,0.06l0.81,0.01l0.03-0.07c0.3-0.7,0.6-1.41,0.9-2.11c0.42,0.01,0.83,0.05,1.24,0.09l0.09,1.89l0.01,0.15
		c0,0.02,0,0.03,0,0.05l0.01,0.09l3.54,0.03L80.33,86.16z M69.23,84.37c0.2-0.51,0.4-1.02,0.6-1.54c0.21,0.46,0.4,0.86,0.58,1.24
		C70.03,84.16,69.63,84.25,69.23,84.37z M74.07,83.99c0.18-0.01,0.35,0,0.52,0c-0.12,0.3-0.24,0.61-0.37,0.91
		c-0.06,0.13-0.1,0.27-0.15,0.39c-0.05-0.12-0.11-0.26-0.18-0.4c-0.14-0.28-0.26-0.56-0.4-0.84C73.69,84.03,73.88,84,74.07,83.99z"
		/>
	<path d="M67.86,81.97l0.04-0.14l-0.88-0.01L67,81.9c-0.21,0.79-0.43,1.62-0.69,2.61c-0.06,0.2-0.11,0.38-0.15,0.55
		c-0.18-0.47-0.33-0.87-0.46-1.23c-0.24-0.66-0.45-1.24-0.77-1.96l-0.03-0.06h-0.61l-0.03,0.07c-0.17,0.47-0.35,0.94-0.52,1.41
		c-0.17,0.45-0.33,0.89-0.49,1.33c-0.02,0.05-0.05,0.17-0.11,0.37c-0.04-0.14-0.08-0.29-0.13-0.44c-0.21-0.66-0.41-1.34-0.6-2
		l-0.22-0.75l-0.91-0.01l0.05,0.14c0.46,1.37,0.93,2.74,1.39,4.09l0.03,0.07l0.83,0.01l0.02-0.08c0.26-0.81,0.54-1.61,0.8-2.38
		l0.1-0.28c0.05-0.14,0.09-0.25,0.12-0.33c0.04,0.07,0.08,0.17,0.12,0.28c0.21,0.57,0.43,1.14,0.65,1.71
		c0.13,0.34,0.26,0.68,0.4,1.03l0.03,0.07h0.07c0.01,0,0.02,0,0.03,0c0.1,0,0.2,0,0.3-0.01c0.1,0,0.2-0.01,0.31-0.01h0.08l0.02-0.08
		C67.05,84.7,67.46,83.34,67.86,81.97z"/>
	<path d="M73.47,89.26c-0.01,0-0.01,0-0.01,0c-0.26-0.52-0.51-1.04-0.76-1.56c-0.12,0-0.23,0-0.34,0c0.31,0.62,0.64,1.24,0.96,1.85
		c-0.06,0.13-0.11,0.27-0.15,0.38c-0.08,0.21-0.18,0.33-0.38,0.32c-0.07,0-0.15-0.02-0.23-0.04c-0.01,0.1-0.01,0.17-0.02,0.25
		c0.1,0.02,0.18,0.02,0.28,0.02c0.35,0,0.52-0.17,0.62-0.46c0.32-0.77,0.63-1.53,0.94-2.32c-0.12,0-0.22,0-0.33,0
		C73.87,88.22,73.68,88.74,73.47,89.26z"/>
	<path d="M70.54,86.98c0-0.12-0.11-0.17-0.22-0.17s-0.2,0.08-0.19,0.17c0,0.1,0.1,0.17,0.21,0.17
		C70.44,87.16,70.54,87.08,70.54,86.98z"/>
	<path d="M62.94,87.94C62.93,87.94,62.93,87.94,62.94,87.94c-0.01-0.08-0.02-0.21-0.03-0.33c-0.1,0-0.19,0-0.29,0
		c0.01,0.13,0.02,0.31,0.02,0.4c0.01,0.48,0.02,0.98,0.04,1.46c0.1,0,0.2,0,0.31,0c-0.01-0.31-0.02-0.62-0.02-0.96
		c-0.01-0.5,0.27-0.69,0.58-0.69c0.08,0,0.18,0,0.21,0.02c0.01-0.08,0.02-0.15,0.04-0.25c-0.06-0.02-0.13-0.02-0.2-0.02
		C63.3,87.58,63.05,87.73,62.94,87.94z"/>
	<path d="M72.02,89.34c-0.18,0-0.31-0.08-0.32-0.35c-0.01-0.35-0.03-0.71-0.04-1.08c0.19,0,0.38,0,0.58,0
		c0-0.08-0.01-0.15-0.01-0.23c-0.2,0-0.39,0-0.58,0c-0.01-0.17-0.01-0.35-0.02-0.52c-0.11,0-0.2,0-0.3,0
		c0.01,0.17,0.01,0.35,0.02,0.52c-0.15,0-0.29,0-0.42,0c0,0.08,0.01,0.15,0.01,0.23c0.14,0,0.28,0,0.42,0
		c0.02,0.38,0.03,0.77,0.05,1.15c0.02,0.4,0.33,0.48,0.55,0.49c0.14,0,0.24-0.02,0.35-0.04c-0.01-0.08-0.02-0.15-0.02-0.25
		C72.2,89.3,72.11,89.34,72.02,89.34z"/>
	<path d="M70.2,87.67c0.02,0.62,0.05,1.23,0.07,1.85c0.1,0,0.2,0,0.31,0c-0.02-0.62-0.05-1.23-0.07-1.85
		C70.4,87.67,70.3,87.67,70.2,87.67z"/>
	<path d="M66.12,88.51c-0.01-0.5-0.37-0.91-1.01-0.91c-0.58,0-1.03,0.4-1.01,0.95c0.02,0.58,0.48,1,1.1,1.01
		c0.34,0,0.64-0.13,0.87-0.42c-0.08-0.04-0.15-0.1-0.23-0.16c-0.11,0.17-0.34,0.32-0.65,0.32c-0.43,0.01-0.75-0.31-0.77-0.68
		c0.56,0,1.14,0.01,1.71,0.01C66.12,88.6,66.12,88.54,66.12,88.51z M64.41,88.41c0.01-0.31,0.31-0.59,0.71-0.59
		c0.42,0,0.68,0.26,0.7,0.6C65.34,88.42,64.87,88.42,64.41,88.41z"/>
	<path d="M69.05,86.55c0.03,0.98,0.07,1.98,0.1,2.96c0.1,0,0.2,0,0.31,0c-0.04-0.98-0.07-1.98-0.1-2.96
		C69.25,86.55,69.14,86.55,69.05,86.55z"/>
	<path d="M68.33,88.29c-0.02-0.46-0.37-0.68-0.82-0.68c-0.35,0-0.63,0.11-0.8,0.26c0.05,0.06,0.11,0.12,0.16,0.17
		c0.14-0.13,0.37-0.21,0.61-0.21c0.35,0,0.56,0.16,0.57,0.47c0,0.02,0,0.04,0,0.06c-0.75-0.01-1.45,0.05-1.44,0.62
		c0.01,0.4,0.42,0.56,0.73,0.56c0.33,0,0.56-0.09,0.73-0.34c0,0,0,0,0.01,0c0,0.1,0.02,0.19,0.04,0.29c0.09,0,0.17,0,0.27,0
		c-0.02-0.1-0.04-0.27-0.05-0.4C68.35,88.83,68.34,88.56,68.33,88.29z M67.42,89.32c-0.22,0-0.48-0.08-0.49-0.35
		c-0.01-0.35,0.55-0.4,1.04-0.4c0.03,0,0.06,0,0.1,0c0,0.06,0,0.1,0,0.13C68.08,89.04,67.85,89.33,67.42,89.32z"/>
</g>
<path class="fillpulse" d="M59.87,201.58c2.81,0,5.11,1.92,5.11,4.28c0,2.37-2.3,4.29-5.11,4.29c-2.82,0-5.11-1.92-5.11-4.29
	C54.76,203.5,57.05,201.58,59.87,201.58z"/>
<path class="st0" d="M64.98,205.86c0-2.36-2.3-4.28-5.11-4.28c-2.82,0-5.11,1.92-5.11,4.28c0,2.37,2.29,4.29,5.11,4.29
	C62.68,210.15,64.98,208.23,64.98,205.86z M59.87,201.01c3.13,0,5.67,2.18,5.67,4.85c0,2.68-2.54,4.86-5.67,4.86
	s-5.68-2.18-5.68-4.86C54.19,203.19,56.74,201.01,59.87,201.01z"/>
<g id="XMLID_1_">
	<path class="st0" d="M119.16,159.8c0.28,2.71,0.22,5.38-0.18,7.96l0.03,0.01l-0.09,0.32c-0.25,1.51-0.63,2.98-1.1,4.42
		c0.41,0.16,0.79,0.4,1.04,0.84c0.02,0.03,0.03,0.07,0.03,0.11c0.15,1.28,0.14,1.57,0.05,2.63l-0.01,0.32
		c0,1.14-0.05,1.51-0.33,2.71l-0.03,0.08c-0.04,0.06-0.1,0.11-0.14,0.16c0.02,0.06,0.06,0.11,0.07,0.17
		c0.02,0.04,0.02,0.08,0.01,0.12c-0.04,0.29-0.08,0.52-0.12,0.73c0.01,0.12-0.01,0.38-0.1,1.09c-0.03,0.3-0.08,0.71-0.08,0.78
		c-0.21,1.44-0.28,1.63-0.75,2.88l-0.08,0.12c-0.21,0.18-0.48,0.26-0.78,0.3c0.17,1.08-0.12,1.81-0.28,2.21
		c-0.03,0.08-0.07,0.18-0.08,0.21v0.06l-0.02,0.04c-0.57,1.27-0.69,1.45-1.48,2.51l-0.11,0.08c-0.19,0.1-0.39,0.14-0.59,0.14
		c-0.3,0-0.59-0.09-0.88-0.21c-0.03,0.92-0.38,2.34-0.38,2.36c-0.02,0.05-0.04,0.09-0.07,0.12c-0.38,0.44-0.63,0.71-0.88,0.95
		l-1.51,5.53c-4.46,15.85-17.62,15.85-46.46,15.85h-7.9c-28.84,0-42,0-46.46-15.84l-7.46-27.28c-1.6-4.17-2.29-8.69-1.96-13.31
		L9.94,19.28c0.37-5.26,3.28-10.16,8.2-13.8C22.93,1.95,29.09,0,35.5,0h42.66c6.42,0,12.67,1.95,17.61,5.5
		c5.09,3.66,8.2,8.58,8.74,13.84L119.16,159.8z M118.36,176.19c0.1-1.15,0.12-1.37-0.02-2.61c-0.2-0.31-0.51-0.48-0.86-0.6
		c-0.16,1.27-0.4,2.5-0.73,3.7c0.58-0.07,1.23-0.23,1.61-0.43V176.19z M118.1,178.8c0.17-0.79,0.23-1.19,0.26-1.81
		c-0.42,0.21-0.93,0.24-1.4,0.26c-0.06,0-0.12,0.01-0.18,0.01c-0.03,0.19-0.05,0.39-0.08,0.58c0.06,0.04,0.12,0.07,0.19,0.11
		c0,0,0,0,0.01,0c0.19,0.11,0.37,0.22,0.56,0.33c0.05,0.04,0.1,0.08,0.16,0.12c0.13,0.09,0.26,0.2,0.37,0.31
		C118.02,178.74,118.07,178.76,118.1,178.8z M117.94,179.63c-0.03-0.11-0.1-0.21-0.16-0.3c-0.03-0.04-0.06-0.08-0.09-0.12
		c-0.06-0.07-0.12-0.13-0.2-0.19c-0.03-0.03-0.06-0.07-0.1-0.1c-0.09-0.06-0.18-0.13-0.28-0.19c-0.03-0.02-0.06-0.04-0.09-0.06
		c-0.13-0.07-0.27-0.15-0.41-0.23c-0.11-0.06-0.22-0.12-0.33-0.19c-2.74,8.09-9.26,14.23-17.74,16.39c0.02,0.07,0.04,0.13,0.07,0.19
		c0.25,0.65,0.49,1.27,0.98,1.51c1.28-0.08,1.48-0.11,2.67-0.45c0.34-0.37,0.28-1.01,0.22-1.68c-0.01-0.14-0.03-0.28-0.04-0.41
		c-0.01-0.14,0.08-0.25,0.2-0.29l0.96-0.31c0.11-0.04,0.24,0,0.31,0.1c0.1,0.13,0.19,0.27,0.29,0.4c0.39,0.56,0.77,1.09,1.29,1.2
		c0.83-0.31,1.47-0.62,2.4-1.26c0.02-0.06,0.04-0.13,0.04-0.2c0.01-0.05,0.02-0.1,0.02-0.16c0-0.09-0.01-0.18-0.03-0.27
		c-0.01-0.05-0.01-0.1-0.02-0.16c-0.03-0.1-0.06-0.21-0.09-0.32c-0.01-0.04-0.02-0.09-0.04-0.13c-0.04-0.13-0.09-0.26-0.13-0.39
		c-0.01-0.02-0.02-0.05-0.03-0.07l-0.12-0.34c-0.04-0.12,0-0.25,0.1-0.32c0.11-0.08,0.22-0.16,0.32-0.23
		c0.17-0.12,0.33-0.23,0.49-0.36c0.11-0.09,0.26-0.08,0.36,0c0.12,0.1,0.24,0.21,0.36,0.31c0.51,0.46,0.99,0.88,1.5,0.86
		c0.13-0.1,0.24-0.19,0.35-0.27c0.01-0.01,0.03-0.02,0.05-0.03c0.08-0.07,0.16-0.13,0.24-0.19c0.01-0.02,0.03-0.03,0.04-0.04
		c0.07-0.06,0.14-0.11,0.2-0.17c0.02-0.01,0.03-0.02,0.04-0.03c0.07-0.06,0.13-0.12,0.19-0.18c0.01-0.01,0.02-0.01,0.03-0.02
		c0.19-0.19,0.32-0.34,0.78-0.91c0.01-0.1,0.01-0.21-0.01-0.31c0-0.01,0-0.02,0-0.03c-0.03-0.12-0.08-0.24-0.13-0.37
		c-0.01-0.01-0.01-0.03-0.02-0.05c-0.03-0.07-0.08-0.14-0.12-0.21c-0.11-0.21-0.25-0.42-0.4-0.64c0-0.01-0.01-0.02-0.02-0.03
		l-0.2-0.3l-0.12-0.18l0.15-0.17c0.15-0.15,0.29-0.33,0.42-0.5c0.07-0.09,0.14-0.18,0.21-0.27l0.15-0.18l0.19,0.1
		c0.01,0.01,0.01,0,0.01,0.01l0.33,0.17c0.61,0.32,1.19,0.62,1.65,0.45c0.11-0.15,0.2-0.27,0.29-0.39c0.02-0.03,0.04-0.06,0.06-0.09
		c0.09-0.12,0.16-0.22,0.23-0.33l0.06-0.08c0.04-0.07,0.08-0.14,0.13-0.21c0.17-0.3,0.32-0.62,0.57-1.16
		c-0.01-0.08-0.03-0.15-0.05-0.22c-0.02-0.05-0.02-0.1-0.04-0.15c-0.04-0.08-0.1-0.17-0.15-0.25c-0.03-0.03-0.04-0.07-0.07-0.1
		c-0.07-0.1-0.16-0.19-0.25-0.28c-0.02-0.02-0.04-0.05-0.06-0.07c-0.05-0.05-0.11-0.1-0.16-0.16c-0.06-0.06-0.13-0.12-0.19-0.18
		c-0.13-0.12-0.25-0.23-0.37-0.35l-0.14-0.14l0.09-0.18c0.15-0.32,0.27-0.61,0.37-0.9l0.08-0.23l0.24,0.05
		c0.15,0.03,0.3,0.06,0.44,0.09c0.48,0.11,0.93,0.2,1.28,0.12c0.09-0.02,0.19-0.06,0.27-0.11l0.25-0.7c0.06-0.16,0.11-0.3,0.15-0.44
		c0.06-0.26,0.13-0.54,0.17-0.72C117.86,180.13,117.9,179.91,117.94,179.63z M117.59,182.65c-0.02,0.01-0.03,0.01-0.04,0.02
		c-0.13,0.08-0.26,0.14-0.39,0.18c-0.02,0-0.04,0.01-0.06,0.01c-0.15,0.03-0.29,0.05-0.45,0.04c-0.01,0-0.03,0-0.05,0
		c-0.15-0.01-0.31-0.03-0.47-0.05c-0.02-0.01-0.03-0.01-0.04-0.01c-0.17-0.03-0.34-0.07-0.5-0.11c-0.06-0.01-0.13-0.02-0.19-0.04
		c-0.07,0.18-0.14,0.35-0.23,0.53c0.07,0.07,0.14,0.14,0.21,0.2c0.13,0.13,0.26,0.25,0.39,0.38c0.04,0.04,0.07,0.08,0.11,0.12
		c0.08,0.09,0.17,0.18,0.24,0.28c0.04,0.05,0.07,0.11,0.11,0.17c0.02,0.03,0.04,0.06,0.06,0.09l0.04-0.1l0.08,0.32
		c0.02,0.06,0.03,0.11,0.05,0.16c0.01,0.06,0.04,0.11,0.05,0.16c0.18-0.01,0.33-0.06,0.45-0.14
		C117.34,183.83,117.44,183.57,117.59,182.65z M110.61,181.69c5.27-5.92,7.7-13.63,6.86-21.71L102.82,19.52
		c-0.49-4.78-3.35-9.26-8.04-12.64C90.13,3.54,84.22,1.7,78.16,1.7H35.5c-6.05,0-11.85,1.83-16.35,5.15
		c-4.51,3.34-7.18,7.8-7.52,12.55L1.77,159.09c-0.56,8.05,2.09,15.76,7.49,21.71c5.55,6.13,13.19,9.55,21.51,9.63l58.54,0.52
		c0.09,0,0.18,0,0.27,0C97.84,190.95,105.3,187.67,110.61,181.69z M116.09,186.34c-0.08,0.15-0.15,0.26-0.21,0.36
		c-0.06,0.11-0.12,0.21-0.19,0.31v0.01c-0.01,0-0.01,0.01-0.02,0.01c-0.07,0.11-0.14,0.21-0.23,0.33c-0.02,0.04-0.06,0.08-0.09,0.13
		c-0.09,0.12-0.19,0.26-0.31,0.42c-0.03,0.04-0.06,0.07-0.11,0.08c-0.73,0.36-1.48-0.04-2.21-0.43l-0.12-0.06l-0.06,0.08
		c-0.1,0.12-0.2,0.25-0.3,0.37l0.07,0.11c0.1,0.14,0.19,0.28,0.28,0.42c0.01,0.02,0.02,0.04,0.03,0.05
		c0.09,0.14,0.17,0.28,0.24,0.42c0.01,0.02,0.02,0.04,0.03,0.07c0.07,0.14,0.12,0.28,0.16,0.43c0.01,0.01,0.01,0.03,0.01,0.04
		c0.04,0.14,0.06,0.28,0.06,0.43c0,0.01,0,0.02,0,0.03c0.49,0.24,0.88,0.35,1.21,0.23c0.73-0.98,0.84-1.14,1.35-2.3
		c0.02-0.09,0.06-0.2,0.11-0.33C115.9,187.28,116.06,186.89,116.09,186.34z M113.33,183.16l0.93-3.41c-0.72,1.07-1.5,2.09-2.37,3.07
		c-5.65,6.35-13.56,9.83-22.31,9.83c-0.09,0-0.19,0-0.29,0l-58.54-0.52c-8.8-0.08-16.88-3.7-22.75-10.19
		c-1.05-1.15-1.99-2.37-2.84-3.63l5.71,20.87c3.96,14.09,14.68,14.8,45.09,14.8h7.9c30.41,0,41.13-0.71,45.1-14.8l1.12-4.11
		c-0.55-0.07-1.03-0.44-1.48-0.84c0.06,0.88-0.26,1.97-0.58,2.53c-0.02,0.04-0.05,0.07-0.09,0.09c-1.1,0.72-1.33,0.81-2.46,1.22
		l-0.16,0.06c-0.04,0.01-0.09,0.02-0.13,0.01c-0.8-0.11-1.28-0.78-1.74-1.44c-0.1-0.13-0.19-0.26-0.28-0.39l-0.1-0.11
		c-0.04,0.96-0.22,2.32-0.75,2.82c-0.04,0.03-0.08,0.06-0.12,0.07c-1.31,0.37-1.53,0.41-2.93,0.49c-0.05,0-0.09,0-0.13-0.02
		c-0.75-0.32-1.05-1.1-1.35-1.85c-0.03-0.07-0.06-0.15-0.08-0.22c-0.14,0.01-0.35,0.04-0.62,0.08c-0.13,0.74-0.34,1.91-1.1,2.08
		c-0.03,0.01-0.11,0.01-0.24,0.01c-0.7,0-2.68-0.11-3.13-0.55c-0.34-0.34-0.45-0.66-0.53-1.11c-0.01-0.02-0.01-0.05-0.01-0.07
		l0.28-2.81c0-0.04,0.03-0.07,0.05-0.1c0-0.02,0-0.04,0.01-0.05c0,0,0.01,0,0.01-0.01c0.05-0.05,0.12-0.09,0.2-0.09
		c1.6-0.04,3.06-0.2,4.45-0.51c0.01,0,0.02,0.01,0.02,0.01c0-0.01,0.01-0.01,0.01-0.01l0.54-0.06c0.02-0.01,0.03-0.03,0.05-0.04
		C104.41,192.75,109.92,188.7,113.33,183.16z M112.56,190.91c-0.14,0.15-0.26,0.28-0.38,0.4c-0.01,0.01-0.02,0.02-0.03,0.03
		c-0.02,0.02-0.04,0.04-0.06,0.05c-0.04,0.04-0.08,0.08-0.12,0.12c-0.04,0.03-0.09,0.07-0.13,0.11c-0.03,0.03-0.07,0.05-0.1,0.08
		c-0.05,0.05-0.11,0.1-0.17,0.15c-0.01,0-0.01,0-0.02,0.01c-0.18,0.14-0.39,0.3-0.65,0.5c-0.04,0.03-0.08,0.04-0.13,0.05
		c-0.79,0.12-1.42-0.44-2.03-0.98c-0.06-0.06-0.11-0.11-0.17-0.15c-0.11,0.08-0.22,0.15-0.33,0.23c-0.05,0.03-0.1,0.07-0.14,0.1
		l0.03,0.09l0.02,0.05c0.04,0.12,0.08,0.23,0.12,0.34c0.01,0.05,0.03,0.09,0.04,0.13c0.03,0.09,0.05,0.17,0.08,0.26
		c0.01,0.04,0.02,0.09,0.04,0.14c0.03,0.11,0.05,0.22,0.06,0.34c0.01,0.04,0.01,0.08,0.02,0.12c0,0.09,0.01,0.17,0.01,0.25
		c0,0.03,0,0.05,0,0.08c0.1,0.09,0.2,0.17,0.3,0.26c0.51,0.46,0.99,0.88,1.5,0.86c0.96-0.73,1.12-0.85,1.92-1.78
		C112.32,192.41,112.47,191.55,112.56,190.91z M107.56,196.42c0.27-0.5,0.52-1.41,0.48-2.11c-0.93,0.6-1.22,0.7-2.27,1.09
		l-0.16,0.06c-0.04,0.01-0.09,0.02-0.13,0.01c-0.2-0.03-0.38-0.09-0.55-0.18c-0.49-0.26-0.85-0.77-1.2-1.26
		c-0.05-0.08-0.1-0.15-0.15-0.23l-0.55,0.18c0,0.06,0.01,0.12,0.01,0.18c0.04,0.4,0.08,0.81,0.03,1.19l0.53,0.61
		c0.11,0.14,0.2,0.28,0.3,0.41c0.39,0.56,0.77,1.09,1.29,1.2l0.08-0.04C106.38,197.13,106.57,197.07,107.56,196.42z M101.96,198.56
		c0.29-0.34,0.47-1.28,0.52-2.14c-0.95,0.27-1.33,0.36-2.01,0.43c-0.01,0-0.03,0-0.05,0c-0.06,0.01-0.13,0.01-0.19,0.02
		c-0.07,0-0.13,0.01-0.2,0.01c-0.14,0.01-0.3,0.02-0.47,0.03c-0.01,0-0.01,0-0.02,0c-0.04,0-0.08,0-0.11-0.02
		c-0.75-0.32-1.05-1.1-1.35-1.85c-0.03-0.07-0.05-0.14-0.08-0.21l-0.62,0.07c-0.02,0.08-0.03,0.17-0.05,0.26
		c-0.01,0.05-0.02,0.09-0.02,0.14c-0.02,0.06-0.03,0.12-0.04,0.18c-0.02,0.06-0.03,0.12-0.05,0.17c-0.01,0.06-0.02,0.11-0.04,0.16
		c-0.02,0.06-0.04,0.13-0.06,0.19c-0.01,0.04-0.03,0.09-0.05,0.13c-0.02,0.07-0.05,0.12-0.08,0.18c-0.02,0.04-0.03,0.08-0.06,0.12
		c-0.03,0.06-0.07,0.11-0.11,0.16c-0.02,0.03-0.04,0.06-0.06,0.09c-0.05,0.05-0.1,0.1-0.15,0.14c-0.03,0.01-0.04,0.04-0.07,0.05
		c-0.08,0.05-0.16,0.09-0.26,0.11c-0.01,0-0.04,0.01-0.07,0.01s-0.06,0-0.1,0c0,0,0,0-0.01,0c-0.02,0-0.04,0-0.08,0
		c-0.23,0-0.6-0.01-1-0.04c0,0-0.01,0-0.02,0c-0.08-0.01-0.17-0.02-0.26-0.03c-0.08-0.01-0.16-0.01-0.24-0.02
		c-0.08-0.01-0.16-0.02-0.24-0.04c-0.08-0.01-0.17-0.02-0.25-0.04c-0.05,0-0.1-0.01-0.15-0.02c-0.11-0.02-0.21-0.05-0.31-0.07
		c-0.03-0.01-0.06-0.02-0.09-0.03c-0.11-0.03-0.2-0.06-0.29-0.1c-0.02-0.01-0.03-0.02-0.05-0.03c-0.08-0.04-0.16-0.08-0.21-0.13
		c-0.04-0.04-0.08-0.09-0.11-0.13l-0.16,1.63c0.07,0.33,0.14,0.54,0.37,0.76c0.28,0.28,2.55,0.43,2.87,0.39
		c0.38-0.08,0.57-1.21,0.65-1.69l0.02-0.14c0.03-0.12,0.12-0.21,0.25-0.23l0.09-0.01c0.51-0.07,0.87-0.11,0.99-0.11
		c0.12,0,0.22,0.06,0.26,0.17c0.06,0.14,0.11,0.28,0.17,0.42c0.25,0.65,0.49,1.27,0.98,1.51
		C100.57,198.93,100.77,198.9,101.96,198.56z M96.77,195.07c0.01-0.02,0.01-0.05,0.01-0.07c-1.2,0.24-2.44,0.38-3.79,0.42
		c0.01,0.03,0.02,0.06,0.03,0.1c0.01,0.03,0.02,0.07,0.04,0.1c0.06,0.15,0.14,0.3,0.25,0.41c0.28,0.28,2.44,0.42,2.86,0.39
		c0.05-0.01,0.09-0.04,0.13-0.07c0.01-0.02,0.02-0.03,0.04-0.05c0.02-0.03,0.05-0.06,0.07-0.1c0.02-0.02,0.03-0.04,0.04-0.06
		c0.02-0.05,0.04-0.09,0.06-0.13c0.01-0.03,0.03-0.06,0.04-0.08c0.02-0.05,0.03-0.11,0.05-0.16c0.01-0.03,0.02-0.05,0.03-0.08
		c0.02-0.07,0.04-0.14,0.05-0.21c0.01-0.01,0.01-0.02,0.01-0.04c0.02-0.08,0.04-0.16,0.06-0.24
		C96.76,195.15,96.76,195.11,96.77,195.07z"/>
</g>
<g>
	<path class="st0" d="M78.65,19.71c-5.75-4.26-13.41-6.86-21.7-6.86c-8.28-0.01-15.83,2.58-21.39,6.8
		c-5.66,4.31-9.36,10.39-9.68,17.29c-0.33,7.1,2.98,13.73,8.68,18.63c5.83,5.02,14.08,8.19,23.25,8.22
		c9.19,0.06,17.37-3.04,23.07-8.03c5.6-4.89,8.72-11.51,8.14-18.65C88.46,30.19,84.51,24.05,78.65,19.71z M32.15,33.46
		c-0.12-0.04-0.25,0-0.33,0.1c-0.45,0.64-0.87,1.29-1.27,1.95c-0.05,0.08-0.1,0.15-0.14,0.23c-0.37,0.63-0.71,1.28-1.04,1.94
		c-0.05,0.11-0.11,0.22-0.16,0.33c-0.31,0.65-0.59,1.31-0.85,1.98c-0.05,0.12-0.09,0.23-0.13,0.35c-0.25,0.68-0.48,1.37-0.69,2.08
		c-0.01,0.03-0.02,0.06-0.03,0.09c-0.44-1.82-0.61-3.69-0.53-5.55c0.29-6.38,3.59-12.29,9.3-16.65c5.58-4.24,12.91-6.57,20.63-6.57
		c0.01,0,0.03,0,0.04,0c7.77,0.01,15.23,2.36,20.98,6.63c5.91,4.41,9.45,10.37,9.95,16.77c0.14,1.8,0.04,3.6-0.3,5.36
		c-0.08-0.26-0.19-0.52-0.28-0.78c-0.12-0.33-0.23-0.66-0.36-0.99c-0.18-0.46-0.38-0.91-0.58-1.36c-0.13-0.3-0.26-0.6-0.4-0.89
		c-0.24-0.49-0.51-0.98-0.78-1.46c-0.13-0.24-0.25-0.48-0.39-0.72c-0.42-0.71-0.87-1.41-1.36-2.1c-0.07-0.1-0.21-0.15-0.33-0.1
		c-0.12,0.04-0.2,0.16-0.18,0.29l0.71,8.16c-1.29-1.72-2.76-3.32-4.38-4.76c-6.06-5.38-13.9-8.35-22.06-8.36c-0.01,0-0.03,0-0.04,0
		c-8.12,0-15.83,2.95-21.71,8.3c-1.37,1.25-2.63,2.63-3.75,4.1l0.65-8.08C32.35,33.62,32.27,33.51,32.15,33.46z M31.04,42.78
		l-0.11,1.39h-2.94c-0.06-0.18-0.12-0.37-0.17-0.55c0.11-0.46,0.26-0.9,0.39-1.35c0.1-0.32,0.17-0.65,0.28-0.96
		c0.15-0.46,0.34-0.9,0.52-1.34c0.12-0.31,0.23-0.62,0.36-0.92c0.2-0.46,0.44-0.91,0.66-1.36c0.14-0.27,0.26-0.56,0.4-0.83
		c0.39-0.71,0.81-1.41,1.25-2.1L31.04,42.78L31.04,42.78z M30.14,48.79c-0.8-1.3-1.46-2.66-1.96-4.05h2.7l-0.33,4.05H30.14z
		 M30.52,49.36L30.52,49.36h-0.01H30.52z M83.58,35.42c0.42,0.64,0.82,1.29,1.18,1.96c0.12,0.22,0.22,0.44,0.34,0.67
		c0.24,0.45,0.48,0.91,0.69,1.37c0.1,0.21,0.18,0.43,0.27,0.65c0.21,0.48,0.42,0.96,0.6,1.45c0.06,0.18,0.11,0.36,0.18,0.54
		c0.18,0.52,0.36,1.05,0.51,1.58c-0.05,0.18-0.09,0.36-0.15,0.54h-2.85c-0.02-0.2-0.04-0.49-0.06-0.69L83.58,35.42z M84.74,48.79
		l-0.35-4.05h2.63c-0.44,1.39-1.04,2.75-1.79,4.05H84.74z M84.9,49.36c-0.03,0.05-0.06,0.1-0.09,0.15l-0.01-0.15H84.9z M80.23,55.27
		c-5.55,4.83-13.5,7.84-22.43,7.8c-8.91-0.05-16.94-3.14-22.61-8.01c-1.6-1.37-3.01-2.89-4.19-4.51l0.12-1.44l0,0l0.37-4.62v-0.01
		l0.01-0.01l0.12-1.55c1.23-1.72,2.65-3.32,4.22-4.76C41.6,32.89,49.17,30,57.15,30c0.01,0,0.03,0,0.04,0
		c8.02,0.01,15.72,2.93,21.68,8.22c1.83,1.62,3.46,3.45,4.86,5.43c0.04,0.47,0.06,0.7,0.08,0.81c0,0.01-0.01,0.01-0.01,0.02
		l0.37,4.31l0,0l0.17,1.92C83.19,52.36,81.82,53.88,80.23,55.27z"/>
	<path class="st0" d="M91.78,37.26c-0.61-7.64-4.9-14.39-11.27-19.17c-6.26-4.69-14.58-7.55-23.61-7.56
		c-9.01-0.01-17.22,2.84-23.27,7.49c-6.16,4.74-10.18,11.44-10.53,19.04c-0.36,7.81,3.24,15.11,9.44,20.51
		c6.34,5.52,15.32,9.01,25.29,9.05c10,0.06,18.89-3.35,25.09-8.84C89.02,52.41,92.41,45.13,91.78,37.26z M82.23,57.23
		c-6.03,5.32-14.68,8.63-24.4,8.59c-9.7-0.06-18.42-3.45-24.6-8.82c-6.04-5.23-9.55-12.33-9.22-19.94
		c0.33-7.39,4.25-13.93,10.23-18.56c5.9-4.54,13.89-7.31,22.67-7.3c8.8,0.01,16.91,2.79,23.01,7.36
		c6.19,4.68,10.37,11.24,10.95,18.68C91.47,44.91,88.15,52.01,82.23,57.23z"/>
</g>
<path class="st0" d="M107.46,173.66c0.2-0.69-0.14-1.14-0.52-1.34h-0.13l-0.09-0.1c-2-0.9-7.04-3.14-8.28-2.02l-0.01-0.01
	c-0.3,0.85,0.1,2.88,2.92,7.61c0.04,0.07,0.07,0.12,0.1,0.18c0.27,0.44,0.72,0.62,1.19,0.44l0.12-0.06
	C104.99,177.41,106.55,175.83,107.46,173.66z M107.49,171.15c0.69,0.32,1.34,1.11,0.96,2.35l-0.04,0.1
	c-0.04,0.11-0.09,0.21-0.14,0.32c0,0.01,0,0.02,0,0.03l-0.04,0.1l-0.01-0.01c-1,2.36-2.7,4.07-5.09,5.09l-0.19,0.08
	c-0.22,0.09-0.44,0.13-0.66,0.13c-0.62,0-1.2-0.34-1.57-0.95c-0.05-0.08-0.07-0.11-0.09-0.16c-2.94-4.92-3.76-7.67-2.65-8.92
	c1.1-1.24,3.83-0.72,9.4,1.78L107.49,171.15z"/>
<path class="st0" d="M50.07,153.92c-0.11-8.08-6.79-14.7-14.97-14.8c-0.06,0-0.12,0-0.18,0c-8.12,0-14.99,6.49-15.35,14.55
	c-0.1,3.98,1.33,7.75,4.06,10.64c2.83,2.99,6.68,4.66,10.85,4.71c4.21,0.05,8.14-1.53,11.1-4.46
	C48.45,161.71,50.04,157.94,50.07,153.92z M18.72,153.37c0.37-8.59,7.74-15.51,16.39-15.38c8.69,0.1,15.78,7.18,15.81,15.77
	c0,0.05,0,0.1,0,0.16c0,0.04,0,0.08,0,0.12h-0.01c-0.06,4.2-1.72,8.15-4.74,11.13c-3.06,3.04-7.13,4.7-11.47,4.7
	c-0.07,0-0.15,0-0.23,0c-4.4-0.05-8.47-1.82-11.45-4.97c-2.8-2.96-4.31-6.78-4.31-10.82c0-0.14,0.01-0.29,0.01-0.43
	c0-0.01,0-0.01,0-0.02C18.72,153.54,18.72,153.46,18.72,153.37z"/>
<path class="st0" d="M64.13,206.92l-1.52-2.37l-1.16,2.5l0.85-0.04c-0.49,0.71-1.4,1.17-2.43,1.17c-0.84,0-1.62-0.3-2.15-0.84
	c-0.02-0.02-0.18-0.16-0.18-0.16l-0.4,0.58c0.67,0.72,1.67,1.13,2.73,1.13c1.46,0,2.75-0.78,3.26-1.92L64.13,206.92z"/>
<path class="st0" d="M59.87,203.55c0.83,0,1.61,0.3,2.14,0.82c0.01,0.01,0.01,0.01,0.02,0.02l0.3-0.68
	c-0.01-0.01-0.02-0.03-0.04-0.04c-0.64-0.53-1.51-0.83-2.42-0.83c-1.56,0-2.87,0.89-3.33,2.11l-1.03-0.05l1.16,2.5l1.52-2.37
	l-0.91-0.04C57.7,204.15,58.7,203.55,59.87,203.55z"/>
<g>
	<path class="st0" d="M38.87,148.57c0.21,0.16,0.42,0.33,0.6,0.54c1.16,1.15,1.87,2.77,1.85,4.53c-0.02,1.78-0.77,3.43-1.97,4.6l0,0
		c-1.2,1.16-2.87,1.86-4.68,1.84c-1.83,0-3.46-0.77-4.62-1.96c-1.15-1.2-1.84-2.84-1.79-4.63c0.05-1.78,0.83-3.36,2.04-4.5l0,0
		c0.18-0.19,0.37-0.34,0.59-0.51c0.28,0.41,0.57,0.81,0.86,1.2c-0.14,0.11-0.29,0.23-0.42,0.36c0,0.02,0,0.02,0,0.02
		c-0.93,0.87-1.51,2.07-1.55,3.45c-0.04,1.36,0.48,2.63,1.37,3.55c0.89,0.93,2.14,1.49,3.54,1.5c1.38,0.02,2.66-0.52,3.59-1.41
		c0.92-0.89,1.51-2.15,1.53-3.53c0.02-1.36-0.53-2.58-1.42-3.49c-0.13-0.14-0.25-0.25-0.39-0.37
		C38.29,149.37,38.57,148.99,38.87,148.57"/>
</g>
<g>
	
		<rect x="32" y="147.89" transform="matrix(0.0193 -0.9998 0.9998 0.0193 -114.2565 180.7233)" class="st0" width="5.99" height="1.42"/>
</g>
</svg>
